<svg xmlns="http://www.w3.org/2000/svg"
     viewBox="0 0 900 800"
     style="display:block;width:100%;height:auto">

  <defs>
    <marker id="svg-arrow" viewBox="0 0 10 10" refX="5" refY="0"
            markerWidth="4" markerHeight="4" orient="auto-start-reverse">
      <path d="M 0 10 L 5 0 L 10 10 Z" fill="#999"/>
    </marker>
    <clipPath id="field-clip">
      <rect x="259.1" y="276.5" width="347.5" height="242.8"
            rx="29.1" ry="29.1"/>
    </clipPath>
  </defs>

  <!-- SECTION ZONES -->
  <polygon class="section-zone" data-zone="300 Level – Upper Bowl" data-sid="301"
           fill="#5A5A5A" stroke="white" stroke-width="0.5" stroke-opacity="0.4"
           points="489.2,97.6 461.8,97.6 437.0,97.6 437.0,133.8 444.0,133.8 444.0,159.1 437.0,159.1 437.0,169.5 489.2,169.5 489.2,159.1 482.3,159.1 482.3,133.8 489.2,133.8 489.2,97.6"/>
  <polygon class="section-zone" data-zone="300 Level – Upper Bowl" data-sid="302"
           fill="#5A5A5A" stroke="white" stroke-width="0.5" stroke-opacity="0.4"
           points="542.3,97.6 491.8,97.6 491.8,133.8 498.8,133.8 498.8,159.1 491.8,159.1 491.8,169.5 542.3,169.5 542.3,159.1 535.3,159.1 535.3,133.8 542.3,133.8 542.3,97.6"/>
  <polygon class="section-zone" data-zone="300 Level – Upper Bowl" data-sid="303"
           fill="#5A5A5A" stroke="white" stroke-width="0.5" stroke-opacity="0.4"
           points="601.8,97.6 544.9,97.6 544.9,133.8 551.9,133.8 551.9,159.1 544.9,159.1 544.9,169.5 577.5,169.5 598.0,170.8 601.1,159.8 601.1,159.1 594.4,157.7 600.1,132.9 607.9,134.6 618.0,98.6 601.8,97.6 601.8,97.6"/>
  <polygon class="section-zone" data-zone="300 Level – Upper Bowl" data-sid="304"
           fill="#5A5A5A" stroke="white" stroke-width="0.5" stroke-opacity="0.4"
           points="687.2,116.8 671.5,110.3 654.9,105.0 638.0,101.2 620.6,98.6 610.6,135.1 616.2,136.5 611.0,161.2 603.6,159.5 603.6,160.4 600.5,170.8 612.8,172.9 624.6,176.0 635.8,179.9 647.2,184.7 653.2,173.9 647.2,170.3 660.2,148.6 666.3,151.7 687.2,116.8 687.2,116.8"/>
  <polygon class="section-zone" data-zone="300 Level – Upper Bowl" data-sid="305"
           fill="#5A5A5A" stroke="white" stroke-width="0.5" stroke-opacity="0.4"
           points="749.8,162.1 735.9,149.0 721.5,137.3 705.8,126.8 689.3,118.1 668.4,153.0 674.5,156.4 661.4,178.6 655.3,175.2 649.3,185.6 661.4,192.1 672.8,199.5 683.2,207.8 693.3,216.9 702.0,208.2 697.1,203.4 715.4,185.6 720.6,190.4 749.8,162.1 749.8,162.1"/>
  <polygon class="section-zone" data-zone="300 Level – Upper Bowl" data-sid="306"
           fill="#5A5A5A" stroke="white" stroke-width="0.5" stroke-opacity="0.4"
           points="738.4,254.3 738.4,254.3 738.4,254.3 758.5,242.9 794.2,223.4 794.2,223.4 794.2,223.4 785.1,207.3 774.6,192.1 763.7,177.3 751.5,163.8 721.1,193.0 727.2,199.5 736.3,209.9 747.2,224.3 758.5,242.9 738.4,254.3 738.4,254.3 728.9,238.7 719.8,226.0 711.5,216.0 705.0,208.6 705.0,208.6 705.0,208.6 695.0,218.6 704.1,228.1 712.4,238.7 719.8,249.5 726.3,261.3 738.4,254.3"/>
  <polygon class="section-zone" data-zone="300 Level – Upper Bowl" data-sid="307"
           fill="#5A5A5A" stroke="white" stroke-width="0.5" stroke-opacity="0.4"
           points="819.8,293.9 815.0,276.1 809.8,259.1 802.9,242.1 795.0,225.6 761.2,244.8 764.6,250.3 742.0,263.0 738.4,257.3 727.6,263.4 733.7,275.2 738.4,287.3 742.8,300.0 746.4,312.6 757.6,310.0 755.9,303.4 781.1,297.0 782.8,303.4 819.8,293.9 819.8,293.9"/>
  <polygon class="section-zone" data-zone="300 Level – Upper Bowl" data-sid="308"
           fill="#5A5A5A" stroke="white" stroke-width="0.5" stroke-opacity="0.4"
           points="825.5,367.4 825.5,356.5 825.5,347.8 825.1,335.3 824.2,322.2 820.2,296.0 783.2,305.7 785.5,312.2 760.2,318.8 758.0,312.2 746.8,315.2 750.2,336.6 751.5,357.9 751.5,364.3 751.5,367.4 762.3,367.4 762.3,360.5 788.5,360.5 788.5,367.4 825.5,367.4 825.5,367.4"/>
  <polygon class="section-zone" data-zone="300 Level – Upper Bowl" data-sid="309"
           fill="#5A5A5A" stroke="white" stroke-width="0.5" stroke-opacity="0.4"
           points="751.5,426.2 762.3,426.2 762.3,419.2 788.5,419.2 788.5,426.2 825.5,426.2 825.5,370.0 788.5,370.0 788.5,376.6 762.3,376.6 762.3,370.0 751.5,370.0 751.5,426.2"/>
  <polygon class="section-zone" data-zone="300 Level – Upper Bowl" data-sid="310"
           fill="#5A5A5A" stroke="white" stroke-width="0.5" stroke-opacity="0.4"
           points="825.5,428.8 788.5,428.8 788.5,435.3 762.3,435.3 762.3,428.8 751.5,428.8 751.5,431.8 751.5,437.9 750.2,459.2 746.8,480.6 758.0,483.6 760.2,477.0 785.5,483.6 783.2,490.1 820.2,499.7 824.2,474.0 825.1,460.9 825.5,448.0 825.5,439.6 825.5,428.8 825.5,428.8"/>
  <polygon class="section-zone" data-zone="300 Level – Upper Bowl" data-sid="311"
           fill="#5A5A5A" stroke="white" stroke-width="0.5" stroke-opacity="0.4"
           points="819.8,502.2 782.8,492.7 781.1,499.2 755.9,492.7 757.6,486.1 746.4,483.1 742.8,495.8 738.4,508.3 733.7,520.6 727.6,532.8 738.4,538.8 742.0,532.8 764.6,545.3 761.2,551.4 795.0,570.5 802.9,554.0 809.8,537.1 815.0,519.7 819.8,502.2 819.8,502.2"/>
  <polygon class="section-zone" data-zone="300 Level – Upper Bowl" data-sid="312"
           fill="#5A5A5A" stroke="white" stroke-width="0.5" stroke-opacity="0.4"
           points="738.0,541.5 758.5,552.7 746.8,571.5 735.9,586.3 727.2,596.3 721.1,602.8 751.5,632.0 763.7,618.4 774.6,604.1 785.1,588.4 794.2,572.8 794.2,572.8 794.2,572.8 738.0,541.5 738.0,541.5 726.3,534.9 719.8,546.2 712.4,557.1 704.1,567.5 695.0,577.5 705.0,587.0 711.5,579.7 719.3,569.7 728.5,557.1 738.0,541.5 738.0,541.5 738.0,541.5"/>
  <polygon class="section-zone" data-zone="300 Level – Upper Bowl" data-sid="313"
           fill="#5A5A5A" stroke="white" stroke-width="0.5" stroke-opacity="0.4"
           points="749.8,634.1 720.6,605.8 715.4,610.2 697.1,592.3 702.0,587.6 693.3,579.3 683.2,588.0 672.8,596.3 661.4,603.7 649.3,610.2 655.3,621.0 661.4,617.6 674.5,639.4 668.4,642.8 689.3,678.1 705.8,668.8 721.5,658.4 735.9,646.8 749.8,634.1 749.8,634.1"/>
  <polygon class="section-zone" data-zone="300 Level – Upper Bowl" data-sid="314"
           fill="#5A5A5A" stroke="white" stroke-width="0.5" stroke-opacity="0.4"
           points="687.2,678.9 666.3,644.1 660.2,647.5 647.2,625.4 653.2,622.3 647.2,611.5 635.8,615.8 624.6,619.7 612.8,622.7 600.5,625.0 603.6,635.4 603.6,636.3 611.0,635.0 616.2,659.7 610.6,660.6 620.6,697.2 638.0,695.0 654.9,691.0 671.5,685.9 687.2,678.9 687.2,678.9"/>
  <polygon class="section-zone" data-zone="300 Level – Upper Bowl" data-sid="315"
           fill="#5A5A5A" stroke="white" stroke-width="0.5" stroke-opacity="0.4"
           points="611.9,676.2 607.9,661.6 600.1,662.7 594.4,638.0 601.1,636.7 601.1,636.3 598.0,625.4 577.5,626.3 544.9,626.3 544.9,637.1 551.9,637.1 551.9,662.3 544.9,662.3 544.9,676.2 611.9,676.2 611.9,676.2"/>
  <polygon class="section-zone" data-zone="300 Level – Upper Bowl" data-sid="316"
           fill="#5A5A5A" stroke="white" stroke-width="0.5" stroke-opacity="0.4"
           points="542.3,676.2 542.3,662.3 535.3,662.3 535.3,637.1 542.3,637.1 542.3,626.3 491.8,626.3 491.8,637.1 498.8,637.1 498.8,662.3 491.8,662.3 491.8,676.2 542.3,676.2"/>
  <polygon class="section-zone" data-zone="300 Level – Upper Bowl" data-sid="317"
           fill="#5A5A5A" stroke="white" stroke-width="0.5" stroke-opacity="0.4"
           points="489.2,676.2 489.2,662.3 482.3,662.3 482.3,637.1 489.2,637.1 489.2,626.3 437.0,626.3 437.0,637.1 444.0,637.1 444.0,662.3 437.0,662.3 437.0,676.2 489.2,676.2"/>
  <polygon class="section-zone" data-zone="300 Level – Upper Bowl" data-sid="318"
           fill="#5A5A5A" stroke="white" stroke-width="0.5" stroke-opacity="0.4"
           points="434.9,676.2 434.9,662.3 427.9,662.3 427.9,637.1 434.9,637.1 434.9,626.3 382.7,626.3 382.7,637.1 389.6,637.1 389.6,662.3 382.7,662.3 382.7,676.2 434.9,676.2"/>
  <polygon class="section-zone" data-zone="300 Level – Upper Bowl" data-sid="319"
           fill="#5A5A5A" stroke="white" stroke-width="0.5" stroke-opacity="0.4"
           points="380.1,676.2 380.1,662.3 373.1,662.3 373.1,637.1 380.1,637.1 380.1,626.3 329.6,626.3 329.6,637.1 336.6,637.1 336.6,662.3 329.6,662.3 329.6,676.2 380.1,676.2"/>
  <polygon class="section-zone" data-zone="300 Level – Upper Bowl" data-sid="320"
           fill="#5A5A5A" stroke="white" stroke-width="0.5" stroke-opacity="0.4"
           points="327.0,676.2 327.0,662.3 320.0,662.3 320.0,637.1 327.0,637.1 327.0,626.3 294.7,626.3 274.4,625.4 271.3,636.3 270.8,636.7 277.4,638.0 272.1,662.7 264.3,661.6 260.0,676.2 327.0,676.2 327.0,676.2"/>
  <polygon class="section-zone" data-zone="300 Level – Upper Bowl" data-sid="321"
           fill="#5A5A5A" stroke="white" stroke-width="0.5" stroke-opacity="0.4"
           points="184.7,678.9 200.8,685.9 216.9,691.0 233.8,695.0 251.7,697.2 261.7,660.6 255.6,659.7 261.3,635.0 268.7,636.3 268.7,635.4 271.7,625.0 259.1,622.7 247.3,619.7 236.1,615.8 225.2,611.5 218.6,622.3 224.7,625.4 211.6,647.5 205.6,644.1 184.7,678.9 184.7,678.9"/>
  <polygon class="section-zone" data-zone="300 Level – Upper Bowl" data-sid="322"
           fill="#5A5A5A" stroke="white" stroke-width="0.5" stroke-opacity="0.4"
           points="122.5,634.1 135.9,646.8 150.7,658.4 166.1,668.8 182.6,678.1 203.4,642.8 197.4,639.4 210.4,617.6 216.5,621.0 223.0,610.2 210.8,603.7 199.5,596.3 188.6,588.0 179.0,579.3 169.9,587.6 175.2,592.3 156.4,610.2 151.7,605.8 122.5,634.1 122.5,634.1"/>
  <polygon class="section-zone" data-zone="300 Level – Upper Bowl" data-sid="323"
           fill="#5A5A5A" stroke="white" stroke-width="0.5" stroke-opacity="0.4"
           points="133.4,541.5 133.4,541.5 133.4,541.5 113.4,553.2 78.2,572.8 78.2,572.8 78.2,572.8 87.3,588.4 97.2,604.1 108.6,618.4 120.8,632.0 150.7,602.8 145.2,596.7 135.9,586.7 125.1,571.9 113.4,553.2 133.4,541.5 133.4,541.5 143.3,557.1 152.6,570.1 160.4,580.2 166.9,587.0 166.9,587.0 166.9,587.0 176.9,577.5 168.2,567.5 160.0,557.1 152.6,546.2 145.6,534.9 133.4,541.5"/>
  <polygon class="section-zone" data-zone="300 Level – Upper Bowl" data-sid="324"
           fill="#5A5A5A" stroke="white" stroke-width="0.5" stroke-opacity="0.4"
           points="52.5,502.2 56.8,519.7 62.5,537.1 69.0,554.0 76.9,570.5 111.2,551.4 107.7,545.3 129.9,532.8 133.4,538.8 144.3,532.8 138.6,520.6 133.4,508.3 129.1,495.8 126.0,483.1 114.7,486.1 116.4,492.7 91.2,499.2 89.4,492.7 52.5,502.2 52.5,502.2"/>
  <polygon class="section-zone" data-zone="300 Level – Upper Bowl" data-sid="325"
           fill="#5A5A5A" stroke="white" stroke-width="0.5" stroke-opacity="0.4"
           points="46.4,428.8 46.4,439.6 46.4,448.0 46.8,460.9 47.7,474.0 52.1,499.7 88.7,490.1 86.8,483.6 112.0,477.0 113.9,483.6 125.1,480.6 121.7,459.2 120.4,437.9 120.4,431.8 120.4,428.8 109.5,428.8 109.5,435.3 83.4,435.3 83.4,428.8 46.4,428.8 46.4,428.8"/>
  <polygon class="section-zone" data-zone="300 Level – Upper Bowl" data-sid="326"
           fill="#5A5A5A" stroke="white" stroke-width="0.5" stroke-opacity="0.4"
           points="120.4,426.2 120.4,370.0 109.5,370.0 109.5,376.6 83.4,376.6 83.4,370.0 46.4,370.0 46.4,426.2 83.4,426.2 83.4,419.2 109.5,419.2 109.5,426.2 120.4,426.2"/>
  <polygon class="section-zone" data-zone="300 Level – Upper Bowl" data-sid="327"
           fill="#5A5A5A" stroke="white" stroke-width="0.5" stroke-opacity="0.4"
           points="46.4,367.4 83.4,367.4 83.4,360.5 109.5,360.5 109.5,367.4 120.4,367.4 120.4,364.3 120.4,357.9 121.7,336.6 125.1,315.2 113.9,312.2 112.0,318.8 86.8,312.2 88.7,305.7 52.1,296.0 47.7,322.2 46.8,335.3 46.4,347.8 46.4,356.5 46.4,367.4 46.4,367.4"/>
  <polygon class="section-zone" data-zone="300 Level – Upper Bowl" data-sid="328"
           fill="#5A5A5A" stroke="white" stroke-width="0.5" stroke-opacity="0.4"
           points="52.5,293.9 89.4,303.4 91.2,297.0 116.4,303.4 114.7,310.0 126.0,312.6 129.1,300.0 133.4,287.3 138.6,275.2 144.3,263.4 133.4,257.3 129.9,263.0 107.7,250.3 111.2,244.8 76.9,225.6 69.0,242.1 62.5,259.1 56.8,276.1 52.5,293.9 52.5,293.9"/>
  <polygon class="section-zone" data-zone="300 Level – Upper Bowl" data-sid="329"
           fill="#5A5A5A" stroke="white" stroke-width="0.5" stroke-opacity="0.4"
           points="133.4,254.3 133.4,254.3 133.4,254.3 113.0,242.9 113.0,242.9 124.7,224.3 135.5,209.5 144.7,199.1 150.7,193.0 120.8,163.8 108.6,177.3 97.2,192.1 87.3,207.3 78.2,223.4 78.2,223.4 78.2,223.4 113.0,242.9 113.0,242.9 133.4,254.3 133.4,254.3 145.6,261.3 152.6,249.5 160.0,238.7 168.2,228.1 176.9,218.6 168.2,209.9 166.9,208.6 160.4,215.6 152.1,225.6 142.9,238.7 133.4,254.3 133.4,254.3 133.4,254.3"/>
  <polygon class="section-zone" data-zone="300 Level – Upper Bowl" data-sid="330"
           fill="#5A5A5A" stroke="white" stroke-width="0.5" stroke-opacity="0.4"
           points="122.5,162.1 151.7,190.4 156.4,185.6 175.2,203.4 169.9,208.2 179.0,216.9 188.6,207.8 199.5,199.5 210.8,192.1 223.0,185.6 216.5,175.2 210.4,178.6 197.4,156.4 203.4,153.0 182.6,118.1 166.1,126.8 150.7,137.3 135.9,149.0 122.5,162.1 122.5,162.1"/>
  <polygon class="section-zone" data-zone="300 Level – Upper Bowl" data-sid="331"
           fill="#5A5A5A" stroke="white" stroke-width="0.5" stroke-opacity="0.4"
           points="184.7,116.8 205.6,151.7 211.6,148.6 224.7,170.3 218.6,173.9 225.2,184.7 236.1,179.9 247.3,176.0 259.1,172.9 271.7,170.8 268.7,160.4 268.7,159.5 261.3,161.2 255.6,136.5 261.7,135.1 251.7,98.6 233.8,101.2 216.9,105.0 200.8,110.3 184.7,116.8 184.7,116.8"/>
  <polygon class="section-zone" data-zone="300 Level – Upper Bowl" data-sid="332"
           fill="#5A5A5A" stroke="white" stroke-width="0.5" stroke-opacity="0.4"
           points="270.4,97.6 254.3,98.6 264.3,134.6 272.1,132.9 277.4,157.7 270.8,159.1 271.3,159.8 274.4,170.8 294.7,169.5 327.0,169.5 327.0,159.1 320.0,159.1 320.0,133.8 327.0,133.8 327.0,97.6 270.4,97.6 270.4,97.6"/>
  <polygon class="section-zone" data-zone="300 Level – Upper Bowl" data-sid="333"
           fill="#5A5A5A" stroke="white" stroke-width="0.5" stroke-opacity="0.4"
           points="329.6,97.6 329.6,133.8 336.6,133.8 336.6,159.1 329.6,159.1 329.6,169.5 380.1,169.5 380.1,159.1 373.1,159.1 373.1,133.8 380.1,133.8 380.1,97.6 329.6,97.6"/>
  <polygon class="section-zone" data-zone="300 Level – Upper Bowl" data-sid="334"
           fill="#5A5A5A" stroke="white" stroke-width="0.5" stroke-opacity="0.4"
           points="382.7,97.6 382.7,133.8 389.6,133.8 389.6,159.1 382.7,159.1 382.7,169.5 434.9,169.5 434.9,159.1 427.9,159.1 427.9,133.8 434.9,133.8 434.9,97.6 410.0,97.6 382.7,97.6"/>
  <polygon class="section-zone" data-zone="Standing Room Only" data-sid="SRO"
           fill="#3C3C3C" stroke="white" stroke-width="0.5" stroke-opacity="0.4"
           points="817.3,642.8 870.0,642.8 870.0,700.0 817.3,700.0"/>
  <polygon class="section-zone" data-zone="200 Level – Lexus Club" data-sid="201"
           fill="#8B1A1A" stroke="white" stroke-width="0.5" stroke-opacity="0.4"
           points="489.2,188.6 437.0,188.6 437.0,193.4 442.3,193.4 442.3,209.5 437.0,209.5 437.0,222.1 489.2,222.1 489.2,209.5 484.0,209.5 484.0,193.4 489.2,193.4 489.2,188.6"/>
  <polygon class="section-zone" data-zone="200 Level – Lexus Club" data-sid="202"
           fill="#8B1A1A" stroke="white" stroke-width="0.5" stroke-opacity="0.4"
           points="543.2,188.6 491.8,188.6 491.8,193.4 497.1,193.4 497.1,209.5 491.8,209.5 491.8,222.1 543.2,222.1 543.2,209.5 537.9,209.5 537.9,193.4 543.2,193.4 543.2,188.6"/>
  <polygon class="section-zone" data-zone="200 Level – Lexus Club" data-sid="203"
           fill="#8B1A1A" stroke="white" stroke-width="0.5" stroke-opacity="0.4"
           points="568.8,188.6 545.7,188.6 545.7,193.4 551.0,193.4 551.0,209.5 545.7,209.5 545.7,222.1 553.1,222.1 567.5,223.0 581.5,224.7 585.3,210.8 580.2,209.5 584.5,195.1 589.7,195.5 591.0,190.0 580.2,188.6 568.8,188.6 568.8,188.6"/>
  <polygon class="section-zone" data-zone="200 Level – Lexus Club" data-sid="204"
           fill="#8B1A1A" stroke="white" stroke-width="0.5" stroke-opacity="0.4"
           points="636.2,203.4 626.3,199.1 615.8,195.5 604.9,192.5 593.7,190.4 591.9,196.0 597.1,197.4 592.7,213.0 587.6,211.6 584.0,225.1 601.1,230.0 616.6,236.5 625.0,222.6 620.6,220.0 628.8,206.1 633.2,208.6 636.2,203.4 636.2,203.4"/>
  <polygon class="section-zone" data-zone="200 Level – Lexus Club" data-sid="205"
           fill="#8B1A1A" stroke="white" stroke-width="0.5" stroke-opacity="0.4"
           points="678.5,233.0 669.3,224.7 659.7,217.3 649.7,210.3 638.8,204.8 635.4,209.9 640.2,212.6 631.8,226.4 627.1,223.9 619.3,237.8 635.8,247.8 650.6,260.0 662.3,248.6 658.4,244.8 670.1,233.4 674.1,237.4 678.5,233.0 678.5,233.0"/>
  <polygon class="section-zone" data-zone="200 Level – Lexus Club" data-sid="206"
           fill="#8B1A1A" stroke="white" stroke-width="0.5" stroke-opacity="0.4"
           points="708.1,271.7 702.0,261.7 695.4,252.2 688.0,242.9 680.2,234.7 675.8,239.1 679.3,242.5 667.6,253.9 664.1,250.3 652.3,261.7 665.0,275.2 675.4,290.0 688.5,282.6 685.9,278.2 700.1,270.0 702.8,274.4 708.1,271.7 708.1,271.7"/>
  <polygon class="section-zone" data-zone="200 Level – Lexus Club" data-sid="207"
           fill="#8B1A1A" stroke="white" stroke-width="0.5" stroke-opacity="0.4"
           points="726.7,317.8 723.2,306.5 719.3,295.2 714.9,284.3 709.4,273.8 704.1,276.5 706.7,281.2 692.3,289.2 689.7,284.8 676.7,292.2 685.5,309.1 691.9,327.0 705.4,323.5 704.1,318.8 720.2,314.4 721.5,319.2 726.7,317.8 726.7,317.8"/>
  <polygon class="section-zone" data-zone="200 Level – Lexus Club" data-sid="208"
           fill="#8B1A1A" stroke="white" stroke-width="0.5" stroke-opacity="0.4"
           points="732.0,367.4 732.0,366.6 732.0,360.5 730.6,340.4 727.2,320.5 722.3,321.8 723.6,326.6 707.5,330.9 706.3,325.6 692.3,329.6 695.9,347.4 697.1,365.3 697.1,367.4 710.2,367.4 710.2,362.2 726.7,362.2 726.7,367.4 732.0,367.4 732.0,367.4"/>
  <polygon class="section-zone" data-zone="200 Level – Lexus Club" data-sid="209"
           fill="#8B1A1A" stroke="white" stroke-width="0.5" stroke-opacity="0.4"
           points="697.1,425.8 697.1,426.2 710.2,426.2 710.2,420.9 726.7,420.9 726.7,426.2 732.0,426.2 732.0,370.0 726.7,370.0 726.7,374.8 710.2,374.8 710.2,370.0 697.1,370.0 697.1,370.0 697.1,425.8"/>
  <polygon class="section-zone" data-zone="200 Level – Lexus Club" data-sid="210"
           fill="#8B1A1A" stroke="white" stroke-width="0.5" stroke-opacity="0.4"
           points="732.0,428.8 726.7,428.8 726.7,433.6 710.2,433.6 710.2,428.8 697.1,428.8 697.1,430.5 695.9,448.7 692.3,466.6 706.3,470.1 707.5,465.3 723.6,469.2 722.3,474.5 727.2,475.7 730.6,455.3 732.0,435.3 732.0,429.6 732.0,428.8 732.0,428.8"/>
  <polygon class="section-zone" data-zone="200 Level – Lexus Club" data-sid="211"
           fill="#8B1A1A" stroke="white" stroke-width="0.5" stroke-opacity="0.4"
           points="726.7,477.9 721.5,476.6 720.2,481.4 704.1,477.5 705.4,472.7 691.9,468.8 685.5,486.7 676.7,504.0 689.7,511.4 692.3,506.6 706.7,514.9 704.1,519.3 709.4,522.3 714.9,511.4 719.3,500.5 723.2,489.2 726.7,477.9 726.7,477.9"/>
  <polygon class="section-zone" data-zone="200 Level – Lexus Club" data-sid="212"
           fill="#8B1A1A" stroke="white" stroke-width="0.5" stroke-opacity="0.4"
           points="708.1,524.4 702.8,521.4 700.1,525.8 685.9,518.0 688.5,513.6 675.4,506.2 665.0,521.0 652.3,534.5 664.1,545.8 667.6,541.9 679.3,553.2 675.8,557.1 680.2,561.4 688.0,552.7 695.4,543.6 702.0,534.1 708.1,524.4 708.1,524.4"/>
  <polygon class="section-zone" data-zone="200 Level – Lexus Club" data-sid="213"
           fill="#8B1A1A" stroke="white" stroke-width="0.5" stroke-opacity="0.4"
           points="678.5,563.1 674.1,558.8 670.1,562.3 658.4,551.0 662.3,547.6 650.6,536.2 635.8,548.3 619.3,558.4 627.1,571.9 631.8,569.7 640.2,583.6 635.4,585.9 638.8,591.4 649.7,585.3 659.7,578.9 669.3,571.5 678.5,563.1 678.5,563.1"/>
  <polygon class="section-zone" data-zone="200 Level – Lexus Club" data-sid="214"
           fill="#8B1A1A" stroke="white" stroke-width="0.5" stroke-opacity="0.4"
           points="636.2,592.3 633.2,587.0 628.8,589.7 620.6,575.8 625.0,573.2 616.6,559.3 601.1,565.8 584.0,570.5 587.6,584.5 592.7,583.2 597.1,598.4 591.9,599.7 593.7,605.8 604.9,603.7 615.8,600.5 626.3,596.7 636.2,592.3 636.2,592.3"/>
  <polygon class="section-zone" data-zone="200 Level – Lexus Club" data-sid="215"
           fill="#8B1A1A" stroke="white" stroke-width="0.5" stroke-opacity="0.4"
           points="568.8,607.5 580.2,607.1 591.0,605.8 589.7,600.5 584.5,601.1 580.2,586.3 585.3,584.9 581.5,571.1 567.5,573.2 553.1,573.6 545.7,573.6 545.7,586.3 551.0,586.3 551.0,602.4 545.7,602.4 545.7,607.5 568.8,607.5 568.8,607.5"/>
  <polygon class="section-zone" data-zone="200 Level – Lexus Club" data-sid="216"
           fill="#8B1A1A" stroke="white" stroke-width="0.5" stroke-opacity="0.4"
           points="543.2,607.5 543.2,602.4 537.9,602.4 537.9,586.3 543.2,586.3 543.2,573.6 491.8,573.6 491.8,586.3 497.1,586.3 497.1,602.4 491.8,602.4 491.8,607.5 543.2,607.5"/>
  <polygon class="section-zone" data-zone="200 Level – Lexus Club" data-sid="217"
           fill="#8B1A1A" stroke="white" stroke-width="0.5" stroke-opacity="0.4"
           points="489.2,607.5 489.2,602.4 484.0,602.4 484.0,586.3 489.2,586.3 489.2,573.6 437.0,573.6 437.0,586.3 442.3,586.3 442.3,602.4 437.0,602.4 437.0,607.5 489.2,607.5"/>
  <polygon class="section-zone" data-zone="200 Level – Lexus Club" data-sid="218"
           fill="#8B1A1A" stroke="white" stroke-width="0.5" stroke-opacity="0.4"
           points="382.7,607.5 434.9,607.5 434.9,602.4 429.6,602.4 429.6,586.3 434.9,586.3 434.9,573.6 382.7,573.6 382.7,586.3 387.8,586.3 387.8,602.4 382.7,602.4 382.7,607.5"/>
  <polygon class="section-zone" data-zone="200 Level – Lexus Club" data-sid="219"
           fill="#8B1A1A" stroke="white" stroke-width="0.5" stroke-opacity="0.4"
           points="328.7,607.5 380.1,607.5 380.1,602.4 374.8,602.4 374.8,586.3 380.1,586.3 380.1,573.6 328.7,573.6 328.7,586.3 334.0,586.3 334.0,602.4 328.7,602.4 328.7,607.5"/>
  <polygon class="section-zone" data-zone="200 Level – Lexus Club" data-sid="220"
           fill="#8B1A1A" stroke="white" stroke-width="0.5" stroke-opacity="0.4"
           points="303.4,607.5 326.2,607.5 326.2,602.4 320.9,602.4 320.9,586.3 326.2,586.3 326.2,573.6 319.2,573.6 304.4,573.2 290.9,571.1 286.9,584.9 291.7,586.3 287.9,601.1 282.6,600.5 281.2,605.8 292.2,607.1 303.4,607.5 303.4,607.5"/>
  <polygon class="section-zone" data-zone="200 Level – Lexus Club" data-sid="221"
           fill="#8B1A1A" stroke="white" stroke-width="0.5" stroke-opacity="0.4"
           points="235.7,592.3 245.6,596.7 256.0,600.5 267.0,603.7 278.7,605.8 279.9,599.7 275.2,598.4 279.1,583.2 284.3,584.5 288.2,570.5 271.3,565.8 255.2,559.3 246.9,573.2 251.7,575.8 243.5,589.7 238.7,587.0 235.7,592.3 235.7,592.3"/>
  <polygon class="section-zone" data-zone="200 Level – Lexus Club" data-sid="222"
           fill="#8B1A1A" stroke="white" stroke-width="0.5" stroke-opacity="0.4"
           points="193.8,563.1 202.5,571.5 212.2,578.9 222.6,585.3 233.4,591.4 236.5,585.9 232.1,583.6 240.4,569.7 244.8,571.9 253.0,558.4 236.5,548.3 221.3,536.2 209.9,547.6 213.5,551.0 201.7,562.3 198.2,558.8 193.8,563.1 193.8,563.1"/>
  <polygon class="section-zone" data-zone="200 Level – Lexus Club" data-sid="223"
           fill="#8B1A1A" stroke="white" stroke-width="0.5" stroke-opacity="0.4"
           points="163.8,524.4 169.9,534.1 176.5,543.6 183.9,552.7 191.7,561.4 196.4,557.1 192.6,553.2 204.2,541.9 208.2,545.8 219.6,534.5 207.4,521.0 197.0,506.2 183.4,513.6 186.0,518.0 171.7,525.8 169.1,521.4 163.8,524.4 163.8,524.4"/>
  <polygon class="section-zone" data-zone="200 Level – Lexus Club" data-sid="224"
           fill="#8B1A1A" stroke="white" stroke-width="0.5" stroke-opacity="0.4"
           points="145.6,477.9 148.6,489.2 152.6,500.5 157.3,511.4 162.5,522.3 167.8,519.3 165.1,514.9 179.5,506.6 182.2,511.4 195.6,504.0 186.9,486.7 180.3,468.8 166.5,472.7 167.8,477.5 152.1,481.4 150.3,476.6 145.6,477.9 145.6,477.9"/>
  <polygon class="section-zone" data-zone="200 Level – Lexus Club" data-sid="225"
           fill="#8B1A1A" stroke="white" stroke-width="0.5" stroke-opacity="0.4"
           points="139.9,428.8 139.9,429.6 139.9,435.3 141.2,455.3 144.7,475.7 149.9,474.5 148.6,469.2 164.7,465.3 166.1,470.1 179.5,466.6 176.0,448.7 174.8,430.5 174.8,428.8 161.7,428.8 161.7,433.6 145.2,433.6 145.2,428.8 139.9,428.8 139.9,428.8"/>
  <polygon class="section-zone" data-zone="200 Level – Lexus Club" data-sid="226"
           fill="#8B1A1A" stroke="white" stroke-width="0.5" stroke-opacity="0.4"
           points="174.8,425.8 174.8,370.0 174.8,370.0 161.7,370.0 161.7,374.8 145.2,374.8 145.2,370.0 139.9,370.0 139.9,426.2 145.2,426.2 145.2,420.9 161.7,420.9 161.7,426.2 174.8,426.2 174.8,425.8"/>
  <polygon class="section-zone" data-zone="200 Level – Lexus Club" data-sid="227"
           fill="#8B1A1A" stroke="white" stroke-width="0.5" stroke-opacity="0.4"
           points="139.9,367.4 145.2,367.4 145.2,362.2 161.7,362.2 161.7,367.4 174.8,367.4 174.8,365.3 176.0,347.4 179.5,329.6 166.1,325.6 164.7,330.9 148.6,326.6 149.9,321.8 144.7,320.5 141.2,340.4 139.9,360.5 139.9,366.6 139.9,367.4 139.9,367.4"/>
  <polygon class="section-zone" data-zone="200 Level – Lexus Club" data-sid="228"
           fill="#8B1A1A" stroke="white" stroke-width="0.5" stroke-opacity="0.4"
           points="145.6,317.8 150.3,319.2 152.1,314.4 167.8,318.8 166.5,323.5 180.3,327.0 186.9,309.1 195.6,292.2 182.2,284.8 179.5,289.2 165.1,281.2 167.8,276.5 162.5,273.8 157.3,284.3 152.6,295.2 148.6,306.5 145.6,317.8 145.6,317.8"/>
  <polygon class="section-zone" data-zone="200 Level – Lexus Club" data-sid="229"
           fill="#8B1A1A" stroke="white" stroke-width="0.5" stroke-opacity="0.4"
           points="163.8,271.7 169.1,274.4 171.7,270.0 186.0,278.2 183.4,282.6 197.0,290.0 207.4,275.2 219.6,261.7 208.2,250.3 204.2,253.9 192.6,242.5 196.4,239.1 191.7,234.7 183.9,242.9 176.5,252.2 169.9,261.7 163.8,271.7 163.8,271.7"/>
  <polygon class="section-zone" data-zone="200 Level – Lexus Club" data-sid="230"
           fill="#8B1A1A" stroke="white" stroke-width="0.5" stroke-opacity="0.4"
           points="193.8,233.0 198.2,237.4 201.7,233.4 213.5,244.8 209.9,248.6 221.3,260.0 236.5,247.8 253.0,237.8 244.8,223.9 240.4,226.4 232.1,212.6 236.5,209.9 233.4,204.8 222.6,210.3 212.2,217.3 202.5,224.7 193.8,233.0 193.8,233.0"/>
  <polygon class="section-zone" data-zone="200 Level – Lexus Club" data-sid="231"
           fill="#8B1A1A" stroke="white" stroke-width="0.5" stroke-opacity="0.4"
           points="235.7,203.4 238.7,208.6 243.5,206.1 251.7,220.0 246.9,222.6 255.2,236.5 271.3,230.0 288.2,225.1 284.3,211.6 279.1,213.0 275.2,197.4 279.9,196.0 278.7,190.4 267.0,192.5 256.0,195.5 245.6,199.1 235.7,203.4 235.7,203.4"/>
  <polygon class="section-zone" data-zone="200 Level – Lexus Club" data-sid="232"
           fill="#8B1A1A" stroke="white" stroke-width="0.5" stroke-opacity="0.4"
           points="303.4,188.6 292.2,188.6 281.2,190.0 282.6,195.5 287.9,195.1 291.7,209.5 286.9,210.8 290.9,224.7 304.4,223.0 319.2,222.1 326.2,222.1 326.2,209.5 320.9,209.5 320.9,193.4 326.2,193.4 326.2,188.6 303.4,188.6 303.4,188.6"/>
  <polygon class="section-zone" data-zone="200 Level – Lexus Club" data-sid="233"
           fill="#8B1A1A" stroke="white" stroke-width="0.5" stroke-opacity="0.4"
           points="328.7,188.6 328.7,193.4 334.0,193.4 334.0,209.5 328.7,209.5 328.7,222.1 380.1,222.1 380.1,209.5 374.8,209.5 374.8,193.4 380.1,193.4 380.1,188.6 328.7,188.6"/>
  <polygon class="section-zone" data-zone="200 Level – Lexus Club" data-sid="234"
           fill="#8B1A1A" stroke="white" stroke-width="0.5" stroke-opacity="0.4"
           points="382.7,188.6 382.7,193.4 387.8,193.4 387.8,209.5 382.7,209.5 382.7,222.1 434.9,222.1 434.9,209.5 429.6,209.5 429.6,193.4 434.9,193.4 434.9,188.6 382.7,188.6"/>
  <polygon class="section-zone" data-zone="Handicap / ADA" data-sid="HC"
           fill="#005B9A" stroke="white" stroke-width="0.5" stroke-opacity="0.4"
           points="232.5,596.0 221.1,589.7 210.6,582.2 200.5,574.2 191.3,565.4 182.4,556.1 174.8,546.1 167.2,535.3 160.9,524.3 155.1,512.9 149.9,501.3 145.7,489.2 142.0,477.0 139.5,464.3 137.4,452.2 136.1,439.6 135.7,427.5 135.7,369.6 136.1,357.1 137.4,344.5 139.5,332.4 142.0,319.8 145.7,307.7 149.9,295.9 155.1,284.2 160.9,272.4 167.2,261.6 174.4,251.1 182.4,241.0 190.8,231.3 200.1,222.6 210.2,214.7 220.7,207.5 232.1,200.8 225.8,189.8 214.0,196.6 203.0,204.1 192.5,213.0 182.8,222.2 173.6,231.8 165.5,242.7 158.0,253.6 150.9,265.3 144.9,277.4 139.5,290.1 135.3,302.6 131.4,315.6 128.5,328.7 126.4,341.6 125.1,355.0 124.7,368.0 124.7,428.8 125.1,442.1 126.4,455.2 128.5,468.2 131.4,481.6 135.3,494.2 139.9,507.1 144.9,519.7 151.3,531.4 158.0,543.2 165.5,554.4 174.0,565.0 182.8,575.0 192.9,584.3 203.4,592.6 214.4,600.1 226.2,606.9 232.5,596.0 232.5,596.0"/>
  <polygon class="section-zone" data-zone="Banner Level Suites & Lofts" data-sid="banner_seats"
           fill="#4A1010" stroke="white" stroke-width="0.5" stroke-opacity="0.4"
           points="257.7,718.1 620.9,718.4 620.1,697.5 634.9,696.0 649.5,693.3 665.5,688.0 677.3,683.6 690.6,677.7 706.7,669.3 725.8,655.6 742.1,640.8 758.1,624.8 778.1,600.1 793.3,574.9 803.2,554.6 814.0,523.9 820.9,496.2 825.2,460.6 825.6,419.9 826.0,371.5 826.0,346.8 824.8,327.3 821.3,297.4 815.7,276.6 808.7,255.9 797.1,228.9 785.9,208.2 775.4,192.6 760.8,172.3 738.6,151.1 705.7,126.0 672.8,110.4 639.4,101.3 613.9,97.4 603.0,97.2 603.0,82.7 257.7,83.1 257.2,97.0 613.9,97.4 639.4,101.3 672.8,110.8 705.7,126.0 738.6,151.5 760.4,171.9 775.6,192.7 785.5,208.3 796.3,228.7 808.4,255.5 815.4,276.2 821.0,297.5 824.4,327.3 825.7,371.9 825.4,420.3 824.4,460.6 820.6,496.6 813.6,523.4 803.7,554.6 793.3,574.9 778.2,599.6 757.9,624.7 742.7,641.1 725.8,655.9 706.7,669.2 690.7,677.4 677.3,683.5 665.6,688.2 650.1,692.6 634.9,696.0 620.2,697.7 620.2,703.8 258.4,704.7"/>
  <polygon class="section-zone" data-zone="Banner Level Suites & Lofts" data-sid="banner_suites_lofts"
           fill="#4A1010" stroke="white" stroke-width="0.5" stroke-opacity="0.4"
           points="585.7,81.6 246.6,83.0 239.2,84.2 227.1,85.9 215.2,88.8 203.4,91.7 191.7,95.9 180.7,100.1 169.8,105.6 149.2,117.7 129.7,132.0 112.0,148.4 95.7,166.7 80.9,187.3 67.9,209.1 56.4,232.6 47.2,257.3 39.6,283.2 34.6,310.2 31.2,337.8 30.0,366.3 30.0,374.6 30.0,419.9 30.0,428.7 31.2,456.0 34.2,482.3 39.2,508.3 46.0,533.0 54.8,556.9 64.9,580.0 77.2,601.3 90.6,621.0 105.7,639.5 122.2,655.9 140.3,670.5 159.2,683.5 179.9,693.9 201.3,702.4 223.7,708.2 235.4,709.9 247.3,711.2 249.4,703.2 226.2,699.9 204.4,693.9 183.6,685.6 163.8,675.2 145.3,663.0 127.6,648.3 111.6,632.4 97.0,614.4 83.9,595.1 72.0,574.5 62.0,552.3 53.5,529.3 47.2,505.0 42.2,479.8 39.2,454.3 38.3,427.9 38.3,419.6 38.3,375.4 38.3,367.1 39.2,339.5 42.5,312.2 48.1,286.3 55.2,261.0 64.5,236.7 75.4,214.1 88.1,192.7 102.4,173.1 118.4,155.1 136.1,139.1 155.1,124.8 175.3,113.1 196.7,103.4 208.1,99.7 219.4,96.7 231.3,94.2 246.9,92.6 246.9,82.2 613.2,81.8 611.8,91.2 646.1,96.2 672.3,103.4 693.7,113.1 713.9,124.8 732.9,139.1 750.6,155.1 766.6,173.1 781.2,192.7 793.9,214.1 805.3,236.7 814.5,261.0 822.2,286.3 827.6,312.2 830.9,339.5 831.8,367.1 831.8,375.4 831.8,419.6 831.8,427.9 830.9,454.3 828.0,479.8 823.4,505.0 816.6,528.9 808.2,551.9 798.1,574.1 786.8,594.7 773.7,614.0 758.9,632.0 742.9,647.9 725.6,662.1 707.1,674.8 687.8,685.2 666.7,693.5 645.3,699.5 622.5,702.8 625.0,711.2 636.9,709.9 648.2,707.8 670.5,701.6 691.9,693.1 712.1,682.7 731.2,670.1 748.9,654.9 765.2,638.7 780.0,620.2 793.5,600.5 805.7,579.1 815.8,556.5 824.7,532.6 831.4,507.9 836.1,482.3 839.4,456.0 840.3,428.7 840.3,419.9 840.3,374.6 840.3,366.3 839.0,337.8 835.7,310.2 830.1,283.2 822.6,257.3 812.8,232.6 801.4,209.1 788.4,187.3 773.3,166.7 756.8,148.4 738.7,132.0 719.8,117.7 699.2,105.6 677.3,95.9 665.9,91.7 654.0,88.8 642.3,85.9 630.1,84.2 612.7,82.0 597.0,81.6"/>
  <polygon class="section-zone" data-zone="100 Level – Lower Bowl" data-sid="101"
           fill="#CF0A2C" stroke="white" stroke-width="0.5" stroke-opacity="0.4"
           points="489.2,331.7 489.2,273.1 482.3,273.1 482.3,247.3 489.2,247.3 489.2,242.5 437.0,242.5 437.0,247.3 444.0,247.3 444.0,273.1 437.0,273.1 437.0,319.9 474.4,319.9 474.4,331.7 489.2,331.7"/>
  <polygon class="section-zone" data-zone="100 Level – Lower Bowl" data-sid="102"
           fill="#CF0A2C" stroke="white" stroke-width="0.5" stroke-opacity="0.4"
           points="542.3,331.7 542.3,273.1 535.3,273.1 535.3,247.3 542.3,247.3 542.3,242.5 491.8,242.5 491.8,247.3 498.8,247.3 498.8,273.1 491.8,273.1 491.8,331.7 504.9,331.7 542.3,331.7"/>
  <polygon class="section-zone" data-zone="100 Level – Lower Bowl" data-sid="103"
           fill="#CF0A2C" stroke="white" stroke-width="0.5" stroke-opacity="0.4"
           points="604.5,256.5 591.0,250.9 576.6,246.5 561.0,243.5 544.9,242.5 544.9,247.3 551.9,247.3 551.9,273.1 544.9,273.1 544.9,331.7 546.6,331.7 553.1,332.2 558.8,333.6 588.4,283.5 582.3,279.9 595.4,258.3 601.4,261.3 604.5,256.5 604.5,256.5"/>
  <polygon class="section-zone" data-zone="100 Level – Lower Bowl" data-sid="104"
           fill="#CF0A2C" stroke="white" stroke-width="0.5" stroke-opacity="0.4"
           points="625.8,316.1 635.0,310.8 635.0,310.8 648.9,303.0 653.6,300.4 653.6,300.4 653.6,300.4 644.1,287.9 633.2,276.5 620.6,266.5 606.6,257.7 603.6,262.6 595.8,276.1 602.8,280.5 612.8,287.9 624.0,298.3 635.0,310.8 635.0,310.8 635.0,310.8 635.0,310.8 625.8,316.1 625.8,316.1 616.2,304.8 606.2,295.6 597.5,289.2 590.6,284.8 590.6,284.8 590.6,284.8 561.0,334.3 566.2,336.6 570.5,339.1 574.5,342.1 577.9,345.7 625.8,316.1"/>
  <polygon class="section-zone" data-zone="100 Level – Lower Bowl" data-sid="105"
           fill="#CF0A2C" stroke="white" stroke-width="0.5" stroke-opacity="0.4"
           points="585.7,367.4 644.1,367.4 644.1,360.5 670.1,360.5 670.1,367.4 676.2,367.4 674.5,350.9 670.7,334.3 664.1,317.8 654.9,302.6 650.2,305.2 653.6,311.4 631.0,323.9 627.6,317.8 579.3,347.8 581.9,352.2 584.0,356.9 585.3,362.2 585.7,367.4 585.7,367.4"/>
  <polygon class="section-zone" data-zone="100 Level – Lower Bowl" data-sid="106"
           fill="#CF0A2C" stroke="white" stroke-width="0.5" stroke-opacity="0.4"
           points="585.7,426.2 644.1,426.2 644.1,419.2 670.1,419.2 670.1,426.2 676.2,426.2 676.2,370.0 670.1,370.0 670.1,376.6 644.1,376.6 644.1,370.0 585.7,370.0 585.7,386.1 585.7,410.4 585.7,426.2"/>
  <polygon class="section-zone" data-zone="100 Level – Lower Bowl" data-sid="107"
           fill="#CF0A2C" stroke="white" stroke-width="0.5" stroke-opacity="0.4"
           points="579.3,448.3 627.6,477.9 631.0,472.3 653.6,484.9 650.2,490.5 654.9,493.5 664.1,477.9 670.7,461.8 674.5,445.3 676.2,428.8 670.1,428.8 670.1,435.3 644.1,435.3 644.1,428.8 585.7,428.8 585.3,433.9 584.0,438.7 582.3,444.0 579.3,448.3 579.3,448.3"/>
  <polygon class="section-zone" data-zone="100 Level – Lower Bowl" data-sid="108"
           fill="#CF0A2C" stroke="white" stroke-width="0.5" stroke-opacity="0.4"
           points="634.9,485.3 634.9,485.3 634.9,485.3 625.8,480.1 625.8,480.1 577.9,450.1 571.5,456.5 562.7,461.4 590.6,511.4 590.6,511.4 590.6,511.4 597.5,507.0 606.2,500.1 616.2,491.4 625.8,480.1 625.8,480.1 634.9,485.3 635.0,485.3 624.0,497.9 612.8,507.9 602.8,515.7 595.8,520.1 603.6,533.2 606.6,537.9 620.6,529.2 633.2,519.3 644.1,507.9 653.6,495.8 653.6,495.8 653.6,495.8 648.9,492.7 635.0,485.3"/>
  <polygon class="section-zone" data-zone="100 Level – Lower Bowl" data-sid="109"
           fill="#CF0A2C" stroke="white" stroke-width="0.5" stroke-opacity="0.4"
           points="604.5,539.2 601.4,534.5 595.4,537.9 582.3,515.7 588.4,512.7 561.0,462.2 554.0,463.9 546.6,464.5 544.9,464.5 544.9,523.1 551.9,523.1 551.9,548.3 544.9,548.3 544.9,553.6 561.0,552.3 576.6,549.7 591.0,545.3 604.5,539.2 604.5,539.2"/>
  <polygon class="section-zone" data-zone="100 Level – Lower Bowl" data-sid="110"
           fill="#CF0A2C" stroke="white" stroke-width="0.5" stroke-opacity="0.4"
           points="491.8,523.1 498.8,523.1 498.8,548.3 491.8,548.3 491.8,553.6 542.3,553.6 542.3,548.3 535.3,548.3 535.3,523.1 542.3,523.1 542.3,464.5 504.9,464.5 491.8,464.5 491.8,523.1"/>
  <polygon class="section-zone" data-zone="100 Level – Lower Bowl" data-sid="111"
           fill="#CF0A2C" stroke="white" stroke-width="0.5" stroke-opacity="0.4"
           points="437.0,523.1 444.0,523.1 444.0,548.3 437.0,548.3 437.0,553.6 489.2,553.6 489.2,548.3 482.3,548.3 482.3,523.1 489.2,523.1 489.2,464.5 456.1,464.5 456.1,472.7 437.0,472.7 437.0,523.1"/>
  <polygon class="section-zone" data-zone="100 Level – Lower Bowl" data-sid="112"
           fill="#CF0A2C" stroke="white" stroke-width="0.5" stroke-opacity="0.4"
           points="382.7,464.5 382.7,523.1 389.6,523.1 389.6,548.3 382.7,548.3 382.7,553.6 434.0,553.6 434.0,548.3 426.9,548.3 426.9,523.1 434.0,523.1 434.0,472.7 415.3,472.7 415.3,464.5 382.7,464.5"/>
  <polygon class="section-zone" data-zone="100 Level – Lower Bowl" data-sid="113"
           fill="#CF0A2C" stroke="white" stroke-width="0.5" stroke-opacity="0.4"
           points="329.6,464.5 329.6,523.1 336.6,523.1 336.6,548.3 329.6,548.3 329.6,553.6 380.1,553.6 380.1,548.3 373.1,548.3 373.1,523.1 380.1,523.1 380.1,464.5 370.0,464.5 329.6,464.5"/>
  <polygon class="section-zone" data-zone="100 Level – Lower Bowl" data-sid="114"
           fill="#CF0A2C" stroke="white" stroke-width="0.5" stroke-opacity="0.4"
           points="267.8,539.2 281.2,545.3 295.6,549.7 310.8,552.3 327.0,553.6 327.0,548.3 320.0,548.3 320.0,523.1 327.0,523.1 327.0,464.5 319.6,463.5 313.1,461.8 283.5,512.7 289.6,515.7 276.5,537.9 270.4,534.5 267.8,539.2 267.8,539.2"/>
  <polygon class="section-zone" data-zone="100 Level – Lower Bowl" data-sid="115"
           fill="#CF0A2C" stroke="white" stroke-width="0.5" stroke-opacity="0.4"
           points="246.1,480.1 236.9,485.3 236.9,485.3 223.4,492.7 218.2,495.8 218.2,495.8 218.2,495.8 227.7,507.9 239.1,519.3 251.7,529.2 265.7,537.9 268.3,533.2 276.1,520.1 269.1,515.7 259.1,507.9 247.8,497.9 236.9,485.3 236.9,485.3 236.9,485.3 236.9,485.3 246.1,480.1 246.1,480.1 255.6,491.4 265.7,500.1 274.8,507.0 281.2,511.4 281.2,511.4 281.2,511.4 310.8,460.9 302.6,455.7 296.0,448.7 246.1,480.1"/>
  <polygon class="section-zone" data-zone="100 Level – Lower Bowl" data-sid="116"
           fill="#CF0A2C" stroke="white" stroke-width="0.5" stroke-opacity="0.4"
           points="289.2,428.8 227.7,428.8 227.7,435.3 201.7,435.3 201.7,428.8 196.0,428.8 197.4,445.3 201.7,461.8 208.2,477.9 216.9,493.5 222.2,490.5 218.6,484.9 241.2,472.3 244.8,477.9 294.7,447.0 290.9,438.3 289.2,428.8 289.2,428.8"/>
  <polygon class="section-zone" data-zone="100 Level – Lower Bowl" data-sid="117"
           fill="#CF0A2C" stroke="white" stroke-width="0.5" stroke-opacity="0.4"
           points="289.2,370.0 227.7,370.0 227.7,376.6 201.7,376.6 201.7,370.0 196.0,370.0 196.0,426.2 201.7,426.2 201.7,419.2 227.7,419.2 227.7,426.2 289.2,426.2 289.2,410.4 289.2,405.3 248.2,405.3 248.2,390.9 289.2,390.9 289.2,386.1 289.2,370.0"/>
  <polygon class="section-zone" data-zone="100 Level – Lower Bowl" data-sid="118"
           fill="#CF0A2C" stroke="white" stroke-width="0.5" stroke-opacity="0.4"
           points="295.2,348.7 244.8,317.8 241.2,323.9 218.6,311.4 222.2,305.2 216.9,302.6 208.2,317.8 201.7,334.3 197.4,350.9 196.0,367.4 201.7,367.4 201.7,360.5 227.7,360.5 227.7,367.4 289.2,367.4 290.9,357.9 295.2,348.7 295.2,348.7"/>
  <polygon class="section-zone" data-zone="100 Level – Lower Bowl" data-sid="119"
           fill="#CF0A2C" stroke="white" stroke-width="0.5" stroke-opacity="0.4"
           points="246.1,316.1 246.1,316.1 246.1,316.1 236.9,310.8 236.9,310.8 247.8,298.3 259.1,287.9 269.1,280.5 276.1,276.1 268.3,262.6 265.7,257.7 251.7,266.5 239.1,276.5 227.7,287.9 218.2,300.4 218.2,300.4 218.2,300.4 223.4,303.0 236.9,310.8 236.9,310.8 246.1,316.1 246.1,316.1 296.6,347.0 300.0,343.1 304.0,339.6 308.3,337.0 313.1,334.7 281.2,284.8 281.2,284.8 281.2,284.8 274.8,289.2 265.7,295.6 255.6,304.8 246.1,316.1"/>
  <polygon class="section-zone" data-zone="100 Level – Lower Bowl" data-sid="120"
           fill="#CF0A2C" stroke="white" stroke-width="0.5" stroke-opacity="0.4"
           points="267.8,256.5 270.4,261.3 276.5,258.3 289.6,279.9 283.5,283.5 315.2,334.0 320.9,332.6 327.0,331.7 327.0,273.1 320.0,273.1 320.0,247.3 327.0,247.3 327.0,242.5 310.8,243.5 295.6,246.5 281.2,250.9 267.8,256.5 267.8,256.5"/>
  <polygon class="section-zone" data-zone="100 Level – Lower Bowl" data-sid="121"
           fill="#CF0A2C" stroke="white" stroke-width="0.5" stroke-opacity="0.4"
           points="380.1,273.1 373.1,273.1 373.1,247.3 380.1,247.3 380.1,242.5 329.6,242.5 329.6,247.3 336.6,247.3 336.6,273.1 329.6,273.1 329.6,331.7 370.0,331.7 380.1,331.7 380.1,273.1"/>
  <polygon class="section-zone" data-zone="100 Level – Lower Bowl" data-sid="122"
           fill="#CF0A2C" stroke="white" stroke-width="0.5" stroke-opacity="0.4"
           points="434.0,273.1 426.9,273.1 426.9,247.3 434.0,247.3 434.0,242.5 382.7,242.5 382.7,247.3 389.6,247.3 389.6,273.1 382.7,273.1 382.7,331.7 396.2,331.7 396.2,319.9 434.0,319.9 434.0,273.1"/>

  <!-- FIELD OVERLAY -->
  <rect class="hockey-ice" fill="#e8f4f8" stroke="#b0ccd6" stroke-width="1"
        x="259.1" y="276.5" width="347.5" height="242.8" rx="29.1" ry="29.1"/>
  <line stroke="#0032A0" stroke-width="2.4"
        x1="345.9" y1="276.5" x2="345.9" y2="519.3"/>
  <line stroke="#0032A0" stroke-width="2.4"
        x1="519.7" y1="276.5" x2="519.7" y2="519.3"/>
  <line stroke="#BF0000" stroke-width="1.7"
        x1="432.8" y1="276.5" x2="432.8" y2="519.3"/>
  <circle fill="none" stroke="#BF0000" stroke-width="1.4"
          cx="432.8" cy="397.9" r="48.6"/>
  <circle fill="#BF0000" cx="432.8" cy="397.9" r="3"/>
  <circle fill="none" stroke="#BF0000" stroke-width="1.0"
          cx="319.9" cy="332.3" r="42.7"/>
  <circle fill="#BF0000" cx="319.9" cy="332.3" r="2.5"/>
  <circle fill="none" stroke="#BF0000" stroke-width="1.0"
          cx="319.9" cy="463.4" r="42.7"/>
  <circle fill="#BF0000" cx="319.9" cy="463.4" r="2.5"/>
  <circle fill="none" stroke="#BF0000" stroke-width="1.0"
          cx="545.8" cy="332.3" r="42.7"/>
  <circle fill="#BF0000" cx="545.8" cy="332.3" r="2.5"/>
  <circle fill="none" stroke="#BF0000" stroke-width="1.0"
          cx="545.8" cy="463.4" r="42.7"/>
  <circle fill="#BF0000" cx="545.8" cy="463.4" r="2.5"/>
  <circle fill="#c8ddf0" fill-opacity="0.65" stroke="#BF0000" stroke-width="1.0"
          cx="276.4" cy="397.9" r="31.6"/>
  <rect fill="#CC0000" fill-opacity="0.75"
        x="274.0" y="387.0" width="4.9" height="21.9"/>
  <circle fill="#c8ddf0" fill-opacity="0.65" stroke="#BF0000" stroke-width="1.0"
          cx="589.2" cy="397.9" r="31.6"/>
  <rect fill="#CC0000" fill-opacity="0.75"
        x="586.8" y="387.0" width="4.9" height="21.9"/>

  <!-- GATE MARKERS -->
  <g class="gate-markers"
     font-family="'Lexend Deca',system-ui,sans-serif"
     font-size="9" font-weight="700">
    <circle class="gate-marker" data-gate="Gate 2"
            cx="235.0" cy="50.0" r="13"
            fill="#CF0A2C" stroke="white" stroke-width="2"/>
    <text x="235.0" y="24.0" fill="#CF0A2C" text-anchor="middle">Gate 2</text>
    <circle class="gate-marker" data-gate="Gate 3"
            cx="390.0" cy="50.0" r="13"
            fill="#CF0A2C" stroke="white" stroke-width="2"/>
    <text x="390.0" y="24.0" fill="#CF0A2C" text-anchor="middle">Gate 3</text>
    <circle class="gate-marker" data-gate="Gate 3½ – American Express Entrance"
            cx="620.0" cy="50.0" r="13"
            fill="#CF0A2C" stroke="white" stroke-width="2"/>
    <text x="620.0" y="24.0" fill="#CF0A2C" text-anchor="middle">Gate 3½ – American Express Entrance</text>
    <circle class="gate-marker" data-gate="Gate 4 – Atrium"
            cx="820.0" cy="390.0" r="13"
            fill="#CF0A2C" stroke="white" stroke-width="2"/>
    <text x="846.0" y="394.0" fill="#CF0A2C" text-anchor="start">Gate 4 – Atrium</text>
    <circle class="gate-marker" data-gate="Gate 5"
            cx="720.0" cy="755.0" r="13"
            fill="#CF0A2C" stroke="white" stroke-width="2"/>
    <text x="720.0" y="781.0" fill="#CF0A2C" text-anchor="middle">Gate 5</text>
    <circle class="gate-marker" data-gate="Gate 6"
            cx="540.0" cy="755.0" r="13"
            fill="#CF0A2C" stroke="white" stroke-width="2"/>
    <text x="540.0" y="781.0" fill="#CF0A2C" text-anchor="middle">Gate 6</text>
    <circle class="gate-marker" data-gate="Gate 6½ – Suite VIP Entrance"
            cx="450.0" cy="755.0" r="13"
            fill="#4A1010" stroke="white" stroke-width="2"/>
    <text x="450.0" y="781.0" fill="#4A1010" text-anchor="middle">Gate 6½ – Suite VIP Entrance</text>
    <circle class="gate-marker" data-gate="Gate 7"
            cx="340.0" cy="755.0" r="13"
            fill="#CF0A2C" stroke="white" stroke-width="2"/>
    <text x="340.0" y="781.0" fill="#CF0A2C" text-anchor="middle">Gate 7</text>
    <circle class="gate-marker" data-gate="Gate 8"
            cx="80.0" cy="600.0" r="13"
            fill="#CF0A2C" stroke="white" stroke-width="2"/>
    <text x="54.0" y="604.0" fill="#CF0A2C" text-anchor="end">Gate 8</text>
    <circle class="gate-marker" data-gate="Gate 2½ – Suite VIP Entrance"
            cx="80.0" cy="200.0" r="13"
            fill="#4A1010" stroke="white" stroke-width="2"/>
    <text x="54.0" y="204.0" fill="#4A1010" text-anchor="end">Gate 2½ – Suite VIP Entrance</text>
  </g>

  <g transform="translate(858,35)"
     font-family="'Lexend Deca',system-ui,sans-serif"
     font-size="11" fill="#999" text-anchor="middle">
    <text x="0" y="0">N</text>
    <line x1="0" y1="5" x2="0" y2="26"
          stroke="#999" stroke-width="1.5"
          marker-end="url(#svg-arrow)"/>
  </g>

</svg>