<svg xmlns="http://www.w3.org/2000/svg" xmlns:xlink="http://www.w3.org/1999/xlink" id="svgmap" width="100%" height="100%" style="touch-action: none;" viewBox="59.7 -10.2 695.9 542.0"><style>
polygon[id^="spoly_"] { fill: #d0d8e4; stroke: #7a8fa6; stroke-width: 2; }
polygon[id^="spoly_"]:hover { fill: #5b8ccc; cursor: pointer; }
.svgText { font-family: Arial, sans-serif; fill: #333; font-size: 9px; }
</style>
         <g id="svgdefs"><defs id="svgdefstyle">
      <linearGradient id="ticketGradient" x1="0%" y1="0%" x2="100%" y2="0%"><stop offset="0%" stop-color="#840ac9"></stop><stop offset="30%" stop-color="#d60eb2"></stop><stop offset="50%" stop-color="#fa0b81"></stop><stop offset="100%" stop-color="#fa0b81"></stop></linearGradient>
      <radialGradient id="markerGradient" cx="50%" cy="50%" r="50%"><stop offset="0%" stop-color="#fa0b81"></stop><stop offset="95%" stop-color="#d60eb2"></stop><stop offset="100%" stop-color="#840ac9"></stop></radialGradient>
      <linearGradient id="flagGradient" x1="0%" y1="0%" x2="100%" y2="100%">
         <stop offset="0%" stop-color="#840ac9"></stop>
         <stop offset="40%" stop-color="#d60eb2"></stop>
         <stop offset="80%" stop-color="#fa0b81"></stop>
         <stop offset="100%" stop-color="#c40665"></stop> 
      </linearGradient>      
      <linearGradient id="svgmapticket" x1="0%" y1="0%" x2="0%" y2="100%"><stop offset="0%" style="stop-color:#5BADFF;stop-opacity:1"></stop><stop offset="100%" style="stop-color:#0066CC;stop-opacity:1"></stop></linearGradient><linearGradient id="svgdealticket" x1="0%" y1="0%" x2="0%" y2="100%"> <stop offset="0%" style="stop-color:#66FF00;stop-opacity:1"></stop><stop offset="100%" style="stop-color:#61C100;stop-opacity:1"></stop></linearGradient><linearGradient id="svggreatticket" x1="0%" y1="0%" x2="0%" y2="100%"><stop offset="0%" style="stop-color:#00CC33;stop-opacity:1"></stop><stop offset="100%" style="stop-color:#009100;stop-opacity:1"></stop></linearGradient><filter id="coinShadow" x="-40%" y="-40%" width="200%" height="200%">            <feGaussianBlur in="SourceAlpha" stdDeviation="3"></feGaussianBlur><feOffset dx="2" dy="2" result="offsetblur"></feOffset><feMerge><feMergeNode></feMergeNode><feMergeNode in="SourceGraphic"></feMergeNode></feMerge></filter><path id="flag-with-arrow" d="M 9.33,0 L 32,0 A 8,8 0 0 1 32,16 L 25.33,16 L 20,20.67 L 14.67,16 L 8,16 A 8,8 0 0 1 8,0 Z"></path><path id="flag-with-arrow-medium" d="M 8,0 L 28,0 A 8,8 0 0 1 28,16 L 23.33,16 L 18,20.67 L 12.67,16 L 8,16 A 8,8 0 0 1 8,0 Z"></path><path id="flag-with-arrow-small" d="M 8,0 L 24,0 A 8,8 0 0 1 24,16 L 20,16 L 16,20.67 L 12,16 L 8,16 A 8,8 0 0 1 8,0 Z"></path></defs>  </g>
         <g class="testmask" mask="url(#fade)" style="scale: 0.95; transform-origin:center;">
         <g id="viewport" transform="matrix(1,0,0,1,0,0)" data-zoomfactor="100"><g id="scaleSVG" data-scale="1" transform="scale(1)" class="testrotate"><g id="svgelements"><image id="svgOverlay" class="nopointereventsmap" xlink:href="/assets/images/venues/overlays/united-center-nhl_9.2019.png" x="-124.9" y="-111.8" width="1043.6px" height="741.1px"></image><g id="svgpolygroup"><polygon id="spoly_101" data-role="section" data-sectionid="101" data-angle="90" points="437.3,209.1 437.3,164.7 432.1,164.7 432.1,145.2 437.3,145.2 437.3,141.6 397.8,141.6 397.8,145.2 403.1,145.2 403.1,164.7 397.8,164.7 397.8,200.2 426.1,200.2 426.1,209.1 437.3,209.1 "></polygon><polygon id="spoly_102" data-role="section" data-sectionid="102" data-angle="90" points="477.5,209.1 477.5,164.7 472.2,164.7 472.2,145.2 477.5,145.2 477.5,141.6 439.3,141.6 439.3,145.2 444.6,145.2 444.6,164.7 439.3,164.7 439.3,209.1 449.2,209.1 477.5,209.1 "></polygon><polygon id="spoly_103" data-role="section" data-sectionid="103" data-angle="109.9" points="524.6,152.2 514.4,147.9 503.5,144.6 491.7,142.3 479.5,141.6 479.5,145.2 484.8,145.2 484.8,164.7 479.5,164.7 479.5,209.1 480.8,209.1 485.7,209.5 490,210.5 512.4,172.6 507.8,169.9 517.7,153.5 522.3,155.8 524.6,152.2 524.6,152.2 "></polygon><polygon id="spoly_104" data-role="section" data-sectionid="104" data-angle="135.9" points="540.7,197.3 547.7,193.3 547.7,193.3 558.2,187.4 561.8,185.4 561.8,185.4 561.8,185.4 554.6,175.9 546.3,167.3 536.8,159.7 526.2,153.1 523.9,156.8 518,167 523.3,170.3 530.9,175.9 539.4,183.8 547.7,193.3 547.7,193.3 547.7,193.3 547.7,193.3 540.7,197.3 540.7,197.3 533.5,188.7 525.9,181.8 519.3,176.9 514.1,173.6 514.1,173.6 514.1,173.6 491.7,211.1 495.6,212.8 498.9,214.7 501.9,217 504.5,219.7 540.7,197.3 "></polygon><polygon id="spoly_105" data-role="section" data-sectionid="105" data-angle="168.2" points="510.4,236.1 554.6,236.1 554.6,230.9 574.3,230.9 574.3,236.1 578.9,236.1 577.6,223.6 574.7,211.1 569.7,198.6 562.8,187.1 559.2,189 561.8,193.7 544.7,203.2 542.1,198.6 505.5,221.3 507.5,224.6 509.1,228.2 510.1,232.2 510.4,236.1 510.4,236.1 "></polygon><polygon id="spoly_106" data-role="section" data-sectionid="106" data-angle="180" points="510.4,280.6 554.6,280.6 554.6,275.3 574.3,275.3 574.3,280.6 578.9,280.6 578.9,238.1 574.3,238.1 574.3,243.1 554.6,243.1 554.6,238.1 510.4,238.1 510.4,250.3 510.4,268.7 510.4,280.6 "></polygon><polygon id="spoly_107" data-role="section" data-sectionid="107" data-angle="191.4" points="505.5,297.4 542.1,319.8 544.7,315.5 561.8,325.1 559.2,329.3 562.8,331.6 569.7,319.8 574.7,307.6 577.6,295.1 578.9,282.6 574.3,282.6 574.3,287.5 554.6,287.5 554.6,282.6 510.4,282.6 510.1,286.5 509.1,290.1 507.8,294.1 505.5,297.4 505.5,297.4 "></polygon><polygon id="spoly_108" data-role="section" data-sectionid="108" data-angle="223.4" points="547.6,325.4 547.6,325.4 547.6,325.4 540.7,321.4 540.7,321.4 504.5,298.7 499.6,303.6 493,307.3 514.1,345.1 514.1,345.1 514.1,345.1 519.3,341.8 525.9,336.6 533.5,330 540.7,321.4 540.7,321.4 547.6,325.4 547.7,325.4 539.4,334.9 530.9,342.5 523.3,348.4 518,351.7 523.9,361.6 526.2,365.2 536.8,358.6 546.3,351.1 554.6,342.5 561.8,333.3 561.8,333.3 561.8,333.3 558.2,331 547.7,325.4 "></polygon><polygon id="spoly_109" data-role="section" data-sectionid="109" data-angle="253.8" points="524.6,366.2 522.3,362.6 517.7,365.2 507.8,348.4 512.4,346.1 491.7,307.9 486.4,309.2 480.8,309.6 479.5,309.6 479.5,354 484.8,354 484.8,373.1 479.5,373.1 479.5,377.1 491.7,376.1 503.5,374.1 514.4,370.8 524.6,366.2 524.6,366.2 "></polygon><polygon id="spoly_110" data-role="section" data-sectionid="110" data-angle="270" points="439.3,354 444.6,354 444.6,373.1 439.3,373.1 439.3,377.1 477.5,377.1 477.5,373.1 472.2,373.1 472.2,354 477.5,354 477.5,309.6 449.2,309.6 439.3,309.6 439.3,354 "></polygon><polygon id="spoly_111" data-role="section" data-sectionid="111" data-angle="270" points="397.8,354 403.1,354 403.1,373.1 397.8,373.1 397.8,377.1 437.3,377.1 437.3,373.1 432.1,373.1 432.1,354 437.3,354 437.3,309.6 412.3,309.6 412.3,315.8 397.8,315.8 397.8,354 "></polygon><polygon id="spoly_112" data-role="section" data-sectionid="112" data-angle="270" points="356.7,309.6 356.7,354 361.9,354 361.9,373.1 356.7,373.1 356.7,377.1 395.5,377.1 395.5,373.1 390.2,373.1 390.2,354 395.5,354 395.5,315.8 381.4,315.8 381.4,309.6 356.7,309.6 "></polygon><polygon id="spoly_113" data-role="section" data-sectionid="113" data-angle="270" points="316.5,309.6 316.5,354 321.8,354 321.8,373.1 316.5,373.1 316.5,377.1 354.7,377.1 354.7,373.1 349.4,373.1 349.4,354 354.7,354 354.7,309.6 347.1,309.6 316.5,309.6 "></polygon><polygon id="spoly_114" data-role="section" data-sectionid="114" data-angle="201.3" points="269.7,366.2 279.9,370.8 290.8,374.1 302.3,376.1 314.5,377.1 314.5,373.1 309.2,373.1 309.2,354 314.5,354 314.5,309.6 308.9,308.9 304,307.6 281.6,346.1 286.2,348.4 276.3,365.2 271.7,362.6 269.7,366.2 269.7,366.2 "></polygon><polygon id="spoly_115" data-role="section" data-sectionid="115" data-angle="332.9" points="253.3,321.4 246.3,325.4 246.3,325.4 236.1,331 232.2,333.3 232.2,333.3 232.2,333.3 239.4,342.5 248,351.1 257.5,358.6 268.1,365.2 270.1,361.6 276,351.7 270.7,348.4 263.1,342.5 254.6,334.9 246.3,325.4 246.3,325.4 246.3,325.4 246.3,325.4 253.3,321.4 253.3,321.4 260.5,330 268.1,336.6 275,341.8 279.9,345.1 279.9,345.1 279.9,345.1 302.3,306.9 296.1,303 291.1,297.7 253.3,321.4 "></polygon><polygon id="spoly_116" data-role="section" data-sectionid="116" data-angle="353.4" points="285.9,282.6 239.4,282.6 239.4,287.5 219.7,287.5 219.7,282.6 215.4,282.6 216.4,295.1 219.7,307.6 224.6,319.8 231.2,331.6 235.2,329.3 232.5,325.1 249.6,315.5 252.3,319.8 290.1,296.4 287.2,289.8 285.9,282.6 285.9,282.6 "></polygon><polygon id="spoly_117" data-role="section" data-sectionid="117" data-angle="360" points="285.9,238.1 239.4,238.1 239.4,243.1 219.7,243.1 219.7,238.1 215.4,238.1 215.4,280.6 219.7,280.6 219.7,275.3 239.4,275.3 239.4,280.6 285.9,280.6 285.9,268.7 285.9,264.8 254.9,264.8 254.9,253.9 285.9,253.9 285.9,250.3 285.9,238.1 "></polygon><polygon id="spoly_118" data-role="section" data-sectionid="118" data-angle="6.8" points="290.5,222 252.3,198.6 249.6,203.2 232.5,193.7 235.2,189 231.2,187.1 224.6,198.6 219.7,211.1 216.4,223.6 215.4,236.1 219.7,236.1 219.7,230.9 239.4,230.9 239.4,236.1 285.9,236.1 287.2,228.9 290.5,222 290.5,222 "></polygon><polygon id="spoly_119" data-role="section" data-sectionid="119" data-angle="26.7" points="253.3,197.3 253.3,197.3 253.3,197.3 246.3,193.3 246.3,193.3 254.6,183.8 263.1,175.9 270.7,170.3 276,167 270.1,156.8 268.1,153.1 257.5,159.7 248,167.3 239.4,175.9 232.2,185.4 232.2,185.4 232.2,185.4 236.1,187.4 246.3,193.3 246.3,193.3 253.3,197.3 253.3,197.3 291.5,220.7 294.1,217.7 297.1,215.1 300.4,213.1 304,211.4 279.9,173.6 279.9,173.6 279.9,173.6 275,176.9 268.1,181.8 260.5,188.7 253.3,197.3 "></polygon><polygon id="spoly_120" data-role="section" data-sectionid="120" data-angle="147.6" points="269.7,152.2 271.7,155.8 276.3,153.5 286.2,169.9 281.6,172.6 305.6,210.8 309.9,209.8 314.5,209.1 314.5,164.7 309.2,164.7 309.2,145.2 314.5,145.2 314.5,141.6 302.3,142.3 290.8,144.6 279.9,147.9 269.7,152.2 269.7,152.2 "></polygon><polygon id="spoly_121" data-role="section" data-sectionid="121" data-angle="90" points="354.7,164.7 349.4,164.7 349.4,145.2 354.7,145.2 354.7,141.6 316.5,141.6 316.5,145.2 321.8,145.2 321.8,164.7 316.5,164.7 316.5,209.1 347.1,209.1 354.7,209.1 354.7,164.7 "></polygon><polygon id="spoly_122" data-role="section" data-sectionid="122" data-angle="90" points="395.5,164.7 390.2,164.7 390.2,145.2 395.5,145.2 395.5,141.6 356.7,141.6 356.7,145.2 361.9,145.2 361.9,164.7 356.7,164.7 356.7,209.1 366.9,209.1 366.9,200.2 395.5,200.2 395.5,164.7 "></polygon><polygon id="spoly_201" data-role="section" data-sectionid="201" data-angle="90" points="437.3,100.8 397.8,100.8 397.8,104.4 401.8,104.4 401.8,116.6 397.8,116.6 397.8,126.1 437.3,126.1 437.3,116.6 433.4,116.6 433.4,104.4 437.3,104.4 437.3,100.8 "></polygon><polygon id="spoly_202" data-role="section" data-sectionid="202" data-angle="90" points="478.2,100.8 439.3,100.8 439.3,104.4 443.3,104.4 443.3,116.6 439.3,116.6 439.3,126.1 478.2,126.1 478.2,116.6 474.2,116.6 474.2,104.4 478.2,104.4 478.2,100.8 "></polygon><polygon id="spoly_203" data-role="section" data-sectionid="203" data-angle="101.2" points="497.6,100.8 480.1,100.8 480.1,104.4 484.1,104.4 484.1,116.6 480.1,116.6 480.1,126.1 485.7,126.1 496.6,126.8 507.2,128.1 510.1,117.6 506.2,116.6 509.5,105.7 513.4,106 514.4,101.8 506.2,100.8 497.6,100.8 497.6,100.8 "></polygon><polygon id="spoly_204" data-role="section" data-sectionid="204" data-angle="120.7" points="548.6,112 541.1,108.7 533.2,106 524.9,103.7 516.4,102.1 515.1,106.4 519,107.4 515.7,119.2 511.8,118.2 509.1,128.4 522,132.1 533.8,137 540.1,126.5 536.8,124.5 543,114 546.3,115.9 548.6,112 548.6,112 "></polygon><polygon id="spoly_205" data-role="section" data-sectionid="205" data-angle="145.4" points="580.6,134.4 573.7,128.1 566.4,122.5 558.8,117.2 550.6,113 548,116.9 551.6,118.9 545.3,129.4 541.7,127.5 535.8,138 548.3,145.6 559.5,154.8 568.4,146.2 565.4,143.3 574.3,134.7 577.3,137.7 580.6,134.4 580.6,134.4 "></polygon><polygon id="spoly_206" data-role="section" data-sectionid="206" data-angle="171.2" points="603,163.7 598.4,156.1 593.4,148.9 587.8,141.9 581.9,135.7 578.6,139 581.2,141.6 572.4,150.2 569.7,147.5 560.8,156.1 570.4,166.3 578.3,177.5 588.2,171.9 586.2,168.6 597,162.4 599,165.7 603,163.7 603,163.7 "></polygon><polygon id="spoly_207" data-role="section" data-sectionid="207" data-angle="9.2" points="617.1,198.6 614.5,190 611.5,181.5 608.2,173.2 604,165.3 600,167.3 602,170.9 591.1,176.9 589.1,173.6 579.3,179.2 585.9,192 590.8,205.5 601,202.9 600,199.3 612.2,196 613.2,199.6 617.1,198.6 617.1,198.6 "></polygon><polygon id="spoly_208" data-role="section" data-sectionid="208" data-angle="1" points="621.1,236.1 621.1,235.5 621.1,230.9 620.1,215.7 617.5,200.6 613.8,201.6 614.8,205.2 602.6,208.5 601.7,204.5 591.1,207.5 593.8,221 594.7,234.5 594.7,236.1 604.6,236.1 604.6,232.2 617.1,232.2 617.1,236.1 621.1,236.1 621.1,236.1 "></polygon><polygon id="spoly_209" data-role="section" data-sectionid="209" data-angle="360" points="594.7,280.3 594.7,280.6 604.6,280.6 604.6,276.6 617.1,276.6 617.1,280.6 621.1,280.6 621.1,238.1 617.1,238.1 617.1,241.7 604.6,241.7 604.6,238.1 594.7,238.1 594.7,238.1 594.7,280.3 "></polygon><polygon id="spoly_210" data-role="section" data-sectionid="210" data-angle="358.8" points="621.1,282.6 617.1,282.6 617.1,286.2 604.6,286.2 604.6,282.6 594.7,282.6 594.7,283.9 593.8,297.7 591.1,311.2 601.7,313.9 602.6,310.2 614.8,313.2 613.8,317.2 617.5,318.1 620.1,302.7 621.1,287.5 621.1,283.2 621.1,282.6 621.1,282.6 "></polygon><polygon id="spoly_211" data-role="section" data-sectionid="211" data-angle="350.2" points="617.1,319.8 613.2,318.8 612.2,322.4 600,319.5 601,315.8 590.8,312.9 585.9,326.4 579.3,339.5 589.1,345.1 591.1,341.5 602,347.8 600,351.1 604,353.4 608.2,345.1 611.5,336.9 614.5,328.3 617.1,319.8 617.1,319.8 "></polygon><polygon id="spoly_212" data-role="section" data-sectionid="212" data-angle="188.6" points="603,355 599,352.7 597,356 586.2,350.1 588.2,346.8 578.3,341.2 570.4,352.4 560.8,362.6 569.7,371.2 572.4,368.2 581.2,376.8 578.6,379.7 581.9,383 587.8,376.4 593.4,369.5 598.4,362.3 603,355 603,355 "></polygon><polygon id="spoly_213" data-role="section" data-sectionid="213" data-angle="224.4" points="580.6,384.3 577.3,381 574.3,383.7 565.4,375.1 568.4,372.5 559.5,363.9 548.3,373.1 535.8,380.7 541.7,390.9 545.3,389.3 551.6,399.8 548,401.5 550.6,405.7 558.8,401.1 566.4,396.2 573.7,390.6 580.6,384.3 580.6,384.3 "></polygon><polygon id="spoly_214" data-role="section" data-sectionid="214" data-angle="250" points="548.6,406.4 546.3,402.4 543,404.4 536.8,393.9 540.1,391.9 533.8,381.4 522,386.3 509.1,389.9 511.8,400.5 515.7,399.5 519,411 515.1,412 516.4,416.6 524.9,415 533.2,412.6 541.1,409.7 548.6,406.4 548.6,406.4 "></polygon><polygon id="spoly_215" data-role="section" data-sectionid="215" data-angle="270" points="497.6,417.9 506.2,417.6 514.4,416.6 513.4,412.6 509.5,413 506.2,401.8 510.1,400.8 507.2,390.3 496.6,391.9 485.7,392.2 480.1,392.2 480.1,401.8 484.1,401.8 484.1,414 480.1,414 480.1,417.9 497.6,417.9 497.6,417.9 "></polygon><polygon id="spoly_216" data-role="section" data-sectionid="216" data-angle="270" points="478.2,417.9 478.2,414 474.2,414 474.2,401.8 478.2,401.8 478.2,392.2 439.3,392.2 439.3,401.8 443.3,401.8 443.3,414 439.3,414 439.3,417.9 478.2,417.9 "></polygon><polygon id="spoly_217" data-role="section" data-sectionid="217" data-angle="270" points="437.3,417.9 437.3,414 433.4,414 433.4,401.8 437.3,401.8 437.3,392.2 397.8,392.2 397.8,401.8 401.8,401.8 401.8,414 397.8,414 397.8,417.9 437.3,417.9 "></polygon><polygon id="spoly_218" data-role="section" data-sectionid="218" data-angle="270" points="356.7,417.9 396.2,417.9 396.2,414 392.2,414 392.2,401.8 396.2,401.8 396.2,392.2 356.7,392.2 356.7,401.8 360.6,401.8 360.6,414 356.7,414 356.7,417.9 "></polygon><polygon id="spoly_219" data-role="section" data-sectionid="219" data-angle="270" points="315.8,417.9 354.7,417.9 354.7,414 350.7,414 350.7,401.8 354.7,401.8 354.7,392.2 315.8,392.2 315.8,401.8 319.8,401.8 319.8,414 315.8,414 315.8,417.9 "></polygon><polygon id="spoly_220" data-role="section" data-sectionid="220" data-angle="222" points="296.7,417.9 313.9,417.9 313.9,414 309.9,414 309.9,401.8 313.9,401.8 313.9,392.2 308.6,392.2 297.4,391.9 287.2,390.3 284.2,400.8 287.8,401.8 284.9,413 280.9,412.6 279.9,416.6 288.2,417.6 296.7,417.9 296.7,417.9 "></polygon><polygon id="spoly_221" data-role="section" data-sectionid="221" data-angle="312" points="245.4,406.4 252.9,409.7 260.8,412.6 269.1,415 278,416.6 278.9,412 275.3,411 278.3,399.5 282.2,400.5 285.2,389.9 272.4,386.3 260.2,381.4 253.9,391.9 257.5,393.9 251.3,404.4 247.7,402.4 245.4,406.4 245.4,406.4 "></polygon><polygon id="spoly_222" data-role="section" data-sectionid="222" data-angle="307.6" points="213.7,384.3 220.3,390.6 227.6,396.2 235.5,401.1 243.7,405.7 246,401.5 242.7,399.8 249,389.3 252.3,390.9 258.5,380.7 246,373.1 234.5,363.9 225.9,372.5 228.6,375.1 219.7,383.7 217,381 213.7,384.3 213.7,384.3 "></polygon><polygon id="spoly_223" data-role="section" data-sectionid="223" data-angle="323.2" points="191,355 195.6,362.3 200.6,369.5 206.2,376.4 212.1,383 215.7,379.7 212.8,376.8 221.6,368.2 224.6,371.2 233.2,362.6 224,352.4 216.1,341.2 205.8,346.8 207.8,350.1 197,356 195,352.7 191,355 191,355 "></polygon><polygon id="spoly_224" data-role="section" data-sectionid="224" data-angle="340.1" points="177.2,319.8 179.5,328.3 182.5,336.9 186.1,345.1 190,353.4 194,351.1 192,347.8 202.9,341.5 204.9,345.1 215.1,339.5 208.5,326.4 203.5,312.9 193,315.8 194,319.5 182.1,322.4 180.8,318.8 177.2,319.8 177.2,319.8 "></polygon><polygon id="spoly_225" data-role="section" data-sectionid="225" data-angle="356.6" points="172.9,282.6 172.9,283.2 172.9,287.5 173.9,302.7 176.5,318.1 180.5,317.2 179.5,313.2 191.7,310.2 192.7,313.9 202.9,311.2 200.2,297.7 199.3,283.9 199.3,282.6 189.4,282.6 189.4,286.2 176.9,286.2 176.9,282.6 172.9,282.6 172.9,282.6 "></polygon><polygon id="spoly_226" data-role="section" data-sectionid="226" data-angle="360" points="199.3,280.3 199.3,238.1 199.3,238.1 189.4,238.1 189.4,241.7 176.9,241.7 176.9,238.1 172.9,238.1 172.9,280.6 176.9,280.6 176.9,276.6 189.4,276.6 189.4,280.6 199.3,280.6 199.3,280.3 "></polygon><polygon id="spoly_227" data-role="section" data-sectionid="227" data-angle="7.4" points="172.9,236.1 176.9,236.1 176.9,232.2 189.4,232.2 189.4,236.1 199.3,236.1 199.3,234.5 200.2,221 202.9,207.5 192.7,204.5 191.7,208.5 179.5,205.2 180.5,201.6 176.5,200.6 173.9,215.7 172.9,230.9 172.9,235.5 172.9,236.1 172.9,236.1 "></polygon><polygon id="spoly_228" data-role="section" data-sectionid="228" data-angle="19.4" points="177.2,198.6 180.8,199.6 182.1,196 194,199.3 193,202.9 203.5,205.5 208.5,192 215.1,179.2 204.9,173.6 202.9,176.9 192,170.9 194,167.3 190,165.3 186.1,173.2 182.5,181.5 179.5,190 177.2,198.6 177.2,198.6 "></polygon><polygon id="spoly_229" data-role="section" data-sectionid="229" data-angle="36.9" points="191,163.7 195,165.7 197,162.4 207.8,168.6 205.8,171.9 216.1,177.5 224,166.3 233.2,156.1 224.6,147.5 221.6,150.2 212.8,141.6 215.7,139 212.1,135.7 206.2,141.9 200.6,148.9 195.6,156.1 191,163.7 191,163.7 "></polygon><polygon id="spoly_230" data-role="section" data-sectionid="230" data-angle="51" points="213.7,134.4 217,137.7 219.7,134.7 228.6,143.3 225.9,146.2 234.5,154.8 246,145.6 258.5,138 252.3,127.5 249,129.4 242.7,118.9 246,116.9 243.7,113 235.5,117.2 227.6,122.5 220.3,128.1 213.7,134.4 213.7,134.4 "></polygon><polygon id="spoly_231" data-role="section" data-sectionid="231" data-angle="52.4" points="245.4,112 247.7,115.9 251.3,114 257.5,124.5 253.9,126.5 260.2,137 272.4,132.1 285.2,128.4 282.2,118.2 278.3,119.2 275.3,107.4 278.9,106.4 278,102.1 269.1,103.7 260.8,106 252.9,108.7 245.4,112 245.4,112 "></polygon><polygon id="spoly_232" data-role="section" data-sectionid="232" data-angle="120.2" points="296.7,100.8 288.2,100.8 279.9,101.8 280.9,106 284.9,105.7 287.8,116.6 284.2,117.6 287.2,128.1 297.4,126.8 308.6,126.1 313.9,126.1 313.9,116.6 309.9,116.6 309.9,104.4 313.9,104.4 313.9,100.8 296.7,100.8 296.7,100.8 "></polygon><polygon id="spoly_233" data-role="section" data-sectionid="233" data-angle="90" points="315.8,100.8 315.8,104.4 319.8,104.4 319.8,116.6 315.8,116.6 315.8,126.1 354.7,126.1 354.7,116.6 350.7,116.6 350.7,104.4 354.7,104.4 354.7,100.8 315.8,100.8 "></polygon><polygon id="spoly_234" data-role="section" data-sectionid="234" data-angle="90" points="356.7,100.8 356.7,104.4 360.6,104.4 360.6,116.6 356.7,116.6 356.7,126.1 396.2,126.1 396.2,116.6 392.2,116.6 392.2,104.4 396.2,104.4 396.2,100.8 356.7,100.8 "></polygon><polygon id="spoly_301" data-role="section" data-sectionid="301" data-angle="90" points="437.3,31.9 416.6,31.9 397.8,31.9 397.8,59.3 403.1,59.3 403.1,78.4 397.8,78.4 397.8,86.3 437.3,86.3 437.3,78.4 432.1,78.4 432.1,59.3 437.3,59.3 437.3,31.9 "></polygon><polygon id="spoly_302" data-role="section" data-sectionid="302" data-angle="90" points="477.5,31.9 439.3,31.9 439.3,59.3 444.6,59.3 444.6,78.4 439.3,78.4 439.3,86.3 477.5,86.3 477.5,78.4 472.2,78.4 472.2,59.3 477.5,59.3 477.5,31.9 "></polygon><polygon id="spoly_303" data-role="section" data-sectionid="303" data-angle="90" points="522.6,31.9 479.5,31.9 479.5,59.3 484.8,59.3 484.8,78.4 479.5,78.4 479.5,86.3 504.2,86.3 519.7,87.3 522,79 522,78.4 517,77.4 521.3,58.6 527.2,59.9 534.8,32.6 522.6,31.9 522.6,31.9 "></polygon><polygon id="spoly_304" data-role="section" data-sectionid="304" data-angle="122.1" points="587.2,46.4 575.3,41.5 562.8,37.5 550,34.6 536.8,32.6 529.2,60.3 533.5,61.3 529.5,80 523.9,78.7 523.9,79.4 521.6,87.3 530.9,88.9 539.8,91.2 548.3,94.2 556.9,97.8 561.5,89.6 556.9,86.9 566.8,70.5 571.4,72.8 587.2,46.4 587.2,46.4 "></polygon><polygon id="spoly_305" data-role="section" data-sectionid="305" data-angle="72.6" points="634.6,80.7 624.1,70.8 613.2,61.9 601.3,54 588.8,47.4 573,73.8 577.6,76.4 567.7,93.2 563.1,90.6 558.5,98.5 567.7,103.4 576.3,109 584.2,115.3 591.8,122.2 598.4,115.6 594.7,112 608.6,98.5 612.5,102.1 634.6,80.7 634.6,80.7 "></polygon><polygon id="spoly_306" data-role="section" data-sectionid="306" data-angle="24.5" points="626,150.5 626,150.5 626,150.5 641.2,141.9 668.2,127.1 668.2,127.1 668.2,127.1 661.3,114.9 653.4,103.4 645.1,92.2 635.9,82 612.9,104.1 617.5,109 624.4,116.9 632.6,127.8 641.2,141.9 626,150.5 626,150.5 618.8,138.7 611.9,129.1 605.6,121.5 600.7,115.9 600.7,115.9 600.7,115.9 593.1,123.5 600,130.7 606.3,138.7 611.9,146.9 616.8,155.8 626,150.5 "></polygon><polygon id="spoly_307" data-role="section" data-sectionid="307" data-angle="18.7" points="687.6,180.5 684,167 680,154.1 674.8,141.3 668.8,128.8 643.2,143.3 645.8,147.5 628.7,157.1 626,152.8 617.8,157.4 622.4,166.3 626,175.5 629.3,185.1 632,194.6 640.5,192.7 639.2,187.7 658.3,182.8 659.6,187.7 687.6,180.5 687.6,180.5 "></polygon><polygon id="spoly_308" data-role="section" data-sectionid="308" data-angle="360" points="691.9,236.1 691.9,227.9 691.9,221.3 691.6,211.8 690.9,201.9 687.9,182.1 659.9,189.4 661.6,194.3 642.5,199.3 640.8,194.3 632.3,196.6 634.9,212.8 635.9,228.9 635.9,233.8 635.9,236.1 644.1,236.1 644.1,230.9 663.9,230.9 663.9,236.1 691.9,236.1 691.9,236.1 "></polygon><polygon id="spoly_309" data-role="section" data-sectionid="309" data-angle="360" points="635.9,280.6 644.1,280.6 644.1,275.3 663.9,275.3 663.9,280.6 691.9,280.6 691.9,238.1 663.9,238.1 663.9,243.1 644.1,243.1 644.1,238.1 635.9,238.1 635.9,280.6 "></polygon><polygon id="spoly_310" data-role="section" data-sectionid="310" data-angle="353.4" points="691.9,282.6 663.9,282.6 663.9,287.5 644.1,287.5 644.1,282.6 635.9,282.6 635.9,284.9 635.9,289.5 634.9,305.6 632.3,321.8 640.8,324.1 642.5,319.1 661.6,324.1 659.9,329 687.9,336.3 690.9,316.8 691.6,306.9 691.9,297.1 691.9,290.8 691.9,282.6 691.9,282.6 "></polygon><polygon id="spoly_311" data-role="section" data-sectionid="311" data-angle="339.4" points="687.6,338.2 659.6,331 658.3,335.9 639.2,331 640.5,326 632,323.7 629.3,333.3 626,342.8 622.4,352.1 617.8,361.3 626,365.9 628.7,361.3 645.8,370.8 643.2,375.4 668.8,389.9 674.8,377.4 680,364.6 684,351.4 687.6,338.2 687.6,338.2 "></polygon><polygon id="spoly_312" data-role="section" data-sectionid="312" data-angle="337.9" points="625.7,367.9 641.2,376.4 632.3,390.6 624.1,401.8 617.5,409.4 612.9,414.3 635.9,436.4 645.1,426.1 653.4,415.3 661.3,403.4 668.2,391.6 668.2,391.6 668.2,391.6 625.7,367.9 625.7,367.9 616.8,362.9 611.9,371.5 606.3,379.7 600,387.6 593.1,395.2 600.7,402.4 605.6,396.8 611.5,389.3 618.5,379.7 625.7,367.9 625.7,367.9 625.7,367.9 "></polygon><polygon id="spoly_313" data-role="section" data-sectionid="313" data-angle="293.4" points="634.6,438 612.5,416.6 608.6,419.9 594.7,406.4 598.4,402.8 591.8,396.5 584.2,403.1 576.3,409.4 567.7,415 558.5,419.9 563.1,428.1 567.7,425.5 577.6,442 573,444.6 588.8,471.3 601.3,464.3 613.2,456.4 624.1,447.6 634.6,438 634.6,438 "></polygon><polygon id="spoly_314" data-role="section" data-sectionid="314" data-angle="240.9" points="587.2,471.9 571.4,445.6 566.8,448.2 556.9,431.4 561.5,429.1 556.9,420.9 548.3,424.2 539.8,427.1 530.9,429.4 521.6,431.1 523.9,439 523.9,439.7 529.5,438.7 533.5,457.4 529.2,458.1 536.8,485.8 550,484.1 562.8,481.1 575.3,477.2 587.2,471.9 587.2,471.9 "></polygon><polygon id="spoly_315" data-role="section" data-sectionid="315" data-angle="270" points="530.2,469.9 527.2,458.8 521.3,459.7 517,441 522,440 522,439.7 519.7,431.4 504.2,432.1 479.5,432.1 479.5,440.3 484.8,440.3 484.8,459.4 479.5,459.4 479.5,469.9 530.2,469.9 530.2,469.9 "></polygon><polygon id="spoly_316" data-role="section" data-sectionid="316" data-angle="270" points="477.5,469.9 477.5,459.4 472.2,459.4 472.2,440.3 477.5,440.3 477.5,432.1 439.3,432.1 439.3,440.3 444.6,440.3 444.6,459.4 439.3,459.4 439.3,469.9 477.5,469.9 "></polygon><polygon id="spoly_317" data-role="section" data-sectionid="317" data-angle="270" points="437.3,469.9 437.3,459.4 432.1,459.4 432.1,440.3 437.3,440.3 437.3,432.1 397.8,432.1 397.8,440.3 403.1,440.3 403.1,459.4 397.8,459.4 397.8,469.9 437.3,469.9 "></polygon><polygon id="spoly_318" data-role="section" data-sectionid="318" data-angle="270" points="396.2,469.9 396.2,459.4 390.9,459.4 390.9,440.3 396.2,440.3 396.2,432.1 356.7,432.1 356.7,440.3 361.9,440.3 361.9,459.4 356.7,459.4 356.7,469.9 396.2,469.9 "></polygon><polygon id="spoly_319" data-role="section" data-sectionid="319" data-angle="270" points="354.7,469.9 354.7,459.4 349.4,459.4 349.4,440.3 354.7,440.3 354.7,432.1 316.5,432.1 316.5,440.3 321.8,440.3 321.8,459.4 316.5,459.4 316.5,469.9 354.7,469.9 "></polygon><polygon id="spoly_320" data-role="section" data-sectionid="320" data-angle="270" points="314.5,469.9 314.5,459.4 309.2,459.4 309.2,440.3 314.5,440.3 314.5,432.1 290.1,432.1 274.7,431.4 272.4,439.7 272,440 277,441 273,459.7 267.1,458.8 263.8,469.9 314.5,469.9 314.5,469.9 "></polygon><polygon id="spoly_321" data-role="section" data-sectionid="321" data-angle="297.4" points="206.8,471.9 219,477.2 231.2,481.1 244,484.1 257.5,485.8 265.1,458.1 260.5,457.4 264.8,438.7 270.4,439.7 270.4,439 272.7,431.1 263.1,429.4 254.2,427.1 245.7,424.2 237.5,420.9 232.5,429.1 237.1,431.4 227.2,448.2 222.6,445.6 206.8,471.9 206.8,471.9 "></polygon><polygon id="spoly_322" data-role="section" data-sectionid="322" data-angle="310.8" points="159.7,438 169.9,447.6 181.1,456.4 192.7,464.3 205.2,471.3 221,444.6 216.4,442 226.3,425.5 230.9,428.1 235.8,419.9 226.6,415 218,409.4 209.8,403.1 202.5,396.5 195.6,402.8 199.6,406.4 185.4,419.9 181.8,416.6 159.7,438 159.7,438 "></polygon><polygon id="spoly_323" data-role="section" data-sectionid="323" data-angle="349.8" points="168,367.9 168,367.9 168,367.9 152.8,376.8 126.2,391.6 126.2,391.6 126.2,391.6 133.1,403.4 140.6,415.3 149.2,426.1 158.4,436.4 181.1,414.3 176.9,409.7 169.9,402.1 161.7,390.9 152.8,376.8 168,367.9 168,367.9 175.5,379.7 182.5,389.6 188.4,397.2 193.3,402.4 193.3,402.4 193.3,402.4 200.9,395.2 194.3,387.6 188.1,379.7 182.5,371.5 177.2,362.9 168,367.9 "></polygon><polygon id="spoly_324" data-role="section" data-sectionid="324" data-angle="276.6" points="106.7,338.2 110,351.4 114.3,364.6 119.2,377.4 125.2,389.9 151.2,375.4 148.5,370.8 165.3,361.3 168,365.9 176.2,361.3 171.9,352.1 168,342.8 164.7,333.3 162.4,323.7 153.8,326 155.1,331 136,335.9 134.7,331 106.7,338.2 106.7,338.2 "></polygon><polygon id="spoly_325" data-role="section" data-sectionid="325" data-angle="187.9" points="102.1,282.6 102.1,290.8 102.1,297.1 102.4,306.9 103.1,316.8 106.4,336.3 134.1,329 132.7,324.1 151.8,319.1 153.2,324.1 161.7,321.8 159.1,305.6 158.1,289.5 158.1,284.9 158.1,282.6 149.9,282.6 149.9,287.5 130.1,287.5 130.1,282.6 102.1,282.6 102.1,282.6 "></polygon><polygon id="spoly_326" data-role="section" data-sectionid="326" data-angle="180" points="158.1,280.6 158.1,238.1 149.9,238.1 149.9,243.1 130.1,243.1 130.1,238.1 102.1,238.1 102.1,280.6 130.1,280.6 130.1,275.3 149.9,275.3 149.9,280.6 158.1,280.6 "></polygon><polygon id="spoly_327" data-role="section" data-sectionid="327" data-angle="169.8" points="102.1,236.1 130.1,236.1 130.1,230.9 149.9,230.9 149.9,236.1 158.1,236.1 158.1,233.8 158.1,228.9 159.1,212.8 161.7,196.6 153.2,194.3 151.8,199.3 132.7,194.3 134.1,189.4 106.4,182.1 103.1,201.9 102.4,211.8 102.1,221.3 102.1,227.9 102.1,236.1 102.1,236.1 "></polygon><polygon id="spoly_328" data-role="section" data-sectionid="328" data-angle="86.2" points="106.7,180.5 134.7,187.7 136,182.8 155.1,187.7 153.8,192.7 162.4,194.6 164.7,185.1 168,175.5 171.9,166.3 176.2,157.4 168,152.8 165.3,157.1 148.5,147.5 151.2,143.3 125.2,128.8 119.2,141.3 114.3,154.1 110,167 106.7,180.5 106.7,180.5 "></polygon><polygon id="spoly_329" data-role="section" data-sectionid="329" data-angle="8.5" points="168,150.5 168,150.5 168,150.5 152.5,141.9 152.5,141.9 161.4,127.8 169.6,116.6 176.5,108.7 181.1,104.1 158.4,82 149.2,92.2 140.6,103.4 133.1,114.9 126.2,127.1 126.2,127.1 126.2,127.1 152.5,141.9 152.5,141.9 168,150.5 168,150.5 177.2,155.8 182.5,146.9 188.1,138.7 194.3,130.7 200.9,123.5 194.3,116.9 193.3,115.9 188.4,121.2 182.1,128.8 175.2,138.7 168,150.5 168,150.5 168,150.5 "></polygon><polygon id="spoly_330" data-role="section" data-sectionid="330" data-angle="50.3" points="159.7,80.7 181.8,102.1 185.4,98.5 199.6,112 195.6,115.6 202.5,122.2 209.8,115.3 218,109 226.6,103.4 235.8,98.5 230.9,90.6 226.3,93.2 216.4,76.4 221,73.8 205.2,47.4 192.7,54 181.1,61.9 169.9,70.8 159.7,80.7 159.7,80.7 "></polygon><polygon id="spoly_331" data-role="section" data-sectionid="331" data-angle="62.2" points="206.8,46.4 222.6,72.8 227.2,70.5 237.1,86.9 232.5,89.6 237.5,97.8 245.7,94.2 254.2,91.2 263.1,88.9 272.7,87.3 270.4,79.4 270.4,78.7 264.8,80 260.5,61.3 265.1,60.3 257.5,32.6 244,34.6 231.2,37.5 219,41.5 206.8,46.4 206.8,46.4 "></polygon><polygon id="spoly_332" data-role="section" data-sectionid="332" data-angle="100.4" points="271.7,31.9 259.5,32.6 267.1,59.9 273,58.6 277,77.4 272,78.4 272.4,79 274.7,87.3 290.1,86.3 314.5,86.3 314.5,78.4 309.2,78.4 309.2,59.3 314.5,59.3 314.5,31.9 271.7,31.9 271.7,31.9 "></polygon><polygon id="spoly_333" data-role="section" data-sectionid="333" data-angle="90" points="316.5,31.9 316.5,59.3 321.8,59.3 321.8,78.4 316.5,78.4 316.5,86.3 354.7,86.3 354.7,78.4 349.4,78.4 349.4,59.3 354.7,59.3 354.7,31.9 316.5,31.9 "></polygon><polygon id="spoly_334" data-role="section" data-sectionid="334" data-angle="90" points="356.7,31.9 356.7,59.3 361.9,59.3 361.9,78.4 356.7,78.4 356.7,86.3 396.2,86.3 396.2,78.4 390.9,78.4 390.9,59.3 396.2,59.3 396.2,31.9 377.4,31.9 356.7,31.9 "></polygon><polygon id="spoly_SRO" data-role="section" data-sectionid="SRO" data-angle="360" points="685.7,444.6 725.6,444.6 725.6,487.9 685.7,487.9 "></polygon><polygon id="spoly_HC" data-role="section" data-sectionid="HC" data-angle="146.7" points="243,409.2 234.4,404.4 226.4,398.7 218.8,392.7 211.8,386 205.1,379 199.3,371.4 193.6,363.2 188.8,354.9 184.4,346.3 180.5,337.5 177.3,328.3 174.5,319.1 172.6,309.5 171,300.3 170,290.8 169.7,281.6 169.7,237.8 170,228.3 171,218.8 172.6,209.6 174.5,200.1 177.3,190.9 180.5,182 184.4,173.1 188.8,164.2 193.6,156 199,148.1 205.1,140.4 211.4,133.1 218.5,126.5 226.1,120.5 234.1,115.1 242.7,110 237.9,101.7 229,106.8 220.7,112.5 212.7,119.2 205.4,126.2 198.4,133.5 192.3,141.7 186.6,150 181.2,158.8 176.7,168 172.6,177.6 169.4,187.1 166.5,196.9 164.3,206.8 162.7,216.6 161.7,226.7 161.4,236.6 161.4,282.6 161.7,292.7 162.7,302.6 164.3,312.4 166.5,322.6 169.4,332.1 172.9,341.9 176.7,351.4 181.5,360.3 186.6,369.2 192.3,377.7 198.7,385.7 205.4,393.3 213,400.3 221,406.6 229.3,412.3 238.2,417.4 243,409.2 243,409.2 "></polygon><polygon id="spoly_banner_seats" data-role="section" data-sectionid="banner_seats" data-angle="180" points="262.1,501.6 537,501.8 536.4,486 547.6,484.9 558.7,482.8 570.8,478.8 579.7,475.5 589.8,471 602,464.7 616.4,454.3 628.8,443.1 640.9,431 656,412.3 667.5,393.2 675,377.8 683.2,354.6 688.4,333.6 691.7,306.7 692,275.9 692.3,239.2 692.3,220.5 691.4,205.8 688.7,183.1 684.5,167.4 679.2,151.7 670.4,131.3 661.9,115.6 654,103.8 642.9,88.4 626.1,72.4 601.2,53.4 576.3,41.6 551,34.7 531.7,31.7 523.5,31.6 523.5,20.6 262.1,20.9 261.7,31.4 531.7,31.7 551,34.7 576.3,41.9 601.2,53.4 626.1,72.7 642.6,88.1 654.1,103.9 661.6,115.7 669.8,131.1 679,151.4 684.3,167.1 688.5,183.2 691.1,205.8 692.1,239.5 691.8,276.2 691.1,306.7 688.2,333.9 682.9,354.2 675.4,377.8 667.5,393.2 656.1,411.9 640.7,430.9 629.2,443.3 616.4,454.5 602,464.6 589.9,470.8 579.7,475.4 570.9,479 559.1,482.3 547.6,484.9 536.5,486.2 536.5,490.8 262.6,491.5 "></polygon><polygon id="spoly_banner_suites_lofts" data-role="section" data-sectionid="banner_suites_lofts" data-angle="201" points="510.4,19.8 253.7,20.8 248.1,21.7 238.9,23 229.9,25.2 221,27.4 212.1,30.6 203.8,33.8 195.5,37.9 179.9,47.1 165.2,57.9 151.8,70.3 139.4,84.2 128.2,99.8 118.4,116.3 109.7,134.1 102.7,152.8 97,172.4 93.2,192.8 90.6,213.7 89.7,235.3 89.7,241.6 89.7,275.9 89.7,282.5 90.6,303.2 92.9,323.1 96.7,342.8 101.8,361.5 108.5,379.6 116.1,397.1 125.4,413.2 135.6,428.1 147,442.1 159.5,454.5 173.2,465.6 187.5,475.4 203.2,483.3 219.4,489.7 236.3,494.1 245.2,495.4 254.2,496.4 255.8,490.3 238.2,487.8 221.7,483.3 206,477 191,469.1 177,459.9 163.6,448.8 151.5,436.7 140.4,423.1 130.5,408.5 121.5,392.9 113.9,376.1 107.5,358.7 102.7,340.3 98.9,321.2 96.7,301.9 96,281.9 96,275.6 96,242.2 96,235.9 96.7,215 99.2,194.3 103.4,174.7 108.8,155.6 115.8,137.2 124.1,120.1 133.7,103.9 144.5,89 156.6,75.4 170,63.3 184.4,52.5 199.7,43.6 215.9,36.3 224.5,33.5 233.1,31.2 242.1,29.3 253.9,28.1 253.9,20.2 531.2,19.9 530.1,27 556.1,30.8 575.9,36.3 592.1,43.6 607.4,52.5 621.8,63.3 635.2,75.4 647.3,89 658.4,103.9 668,120.1 676.6,137.2 683.6,155.6 689.4,174.7 693.5,194.3 696,215 696.7,235.9 696.7,242.2 696.7,275.6 696.7,281.9 696,301.9 693.8,321.2 690.3,340.3 685.2,358.4 678.8,375.8 671.2,392.6 662.6,408.2 652.7,422.8 641.5,436.4 629.4,448.5 616.3,459.2 602.3,468.8 587.7,476.7 571.7,483 555.5,487.5 538.2,490 540.1,496.4 549.1,495.4 557.7,493.8 574.6,489.1 590.8,482.7 606.1,474.8 620.5,465.3 633.9,453.8 646.3,441.5 657.5,427.5 667.7,412.6 676.9,396.4 684.6,379.3 691.3,361.2 696.4,342.5 699.9,323.1 702.4,303.2 703.1,282.5 703.1,275.9 703.1,241.6 703.1,235.3 702.1,213.7 699.6,192.8 695.4,172.4 689.7,152.8 682.3,134.1 673.7,116.3 663.8,99.8 652.4,84.2 639.9,70.3 626.2,57.9 611.9,47.1 596.3,37.9 579.7,30.6 571.1,27.4 562.1,25.2 553.2,23 544,21.7 530.8,20.1 518.9,19.8 "></polygon><polygon class="is-d epoly_lower_level_suites_4" data-role="dynamic" points="208.3,258.9 " style="fill:#; stroke:#; stroke-width:0; fill-opacity:0.0;"></polygon><polygon class="is-d epoly_lower_level_suites_2" data-role="dynamic" points="397.7,134.3 " style="fill:#; stroke:#; stroke-width:0; fill-opacity:0.0;"></polygon><polygon class="is-d epoly_lower_level_suites_3" data-role="dynamic" points="587.7,256 " style="fill:#; stroke:#; stroke-width:0; fill-opacity:0.0;"></polygon><polygon class="is-d epoly_club_level_suites_1" data-role="dynamic" points="293.2,89.9 286,90.2 278.9,90.8 272.1,91.7 265.5,93 259,94.7 252.8,96.7 246.7,99 240.8,101.6 245.4,109.9 251.2,107.3 257.2,105 263.3,103.1 269.7,101.4 276.2,100 283,99.2 289.8,98.6 296.9,98.3 498.4,98.3 505.6,98.6 512.4,99.2 519.3,100 525.8,101.4 532.1,103.1 538.3,105 544.3,107.3 550.2,110 554.8,101.7 548.8,99 542.7,96.7 536.5,94.7 529.9,93.1 523.3,91.7 516.5,90.8 509.4,90.2 502.2,89.9 293.2,89.9 293.2,89.9 " style="fill:#F4F4F4; stroke:#BEBEBE; stroke-width:1; fill-opacity:1.0;"></polygon><polygon class="is-d epoly_club_level_suites_2" data-role="dynamic" points="549.8,409.5 544.1,412 538.1,414.3 532,416.3 525.6,418 519,419.3 512.3,420.2 505.5,420.8 498.4,421 296.9,421 289.9,420.8 283,420.2 276.4,419.3 269.9,418 263.5,416.4 257.4,414.4 251.5,412.1 245.7,409.6 241.1,417.8 246.9,420.4 253,422.7 259.3,424.6 265.6,426.3 272.3,427.6 279.1,428.5 286,429.1 293.2,429.4 502.2,429.4 509.4,429.1 516.4,428.5 523.2,427.6 529.8,426.2 536.3,424.6 542.5,422.6 548.6,420.3 554.4,417.7 549.8,409.5 549.8,409.5 " style="fill:#F4F4F4; stroke:#BEBEBE; stroke-width:1; fill-opacity:1.0;"></polygon><polygon class="is-d epoly_lower_level_suites" data-role="dynamic" points="203.4,235.5 203.4,283.8 203.5,288.1 203.9,292.4 204.5,296.7 205.3,301.1 206.4,305.6 207.8,310.1 209.2,314.6 210.9,319.1 212.9,323.6 215.1,328 217.5,332.4 220.1,336.8 222.9,341.1 226,345.3 229.1,349.3 232.5,353.3 236.1,357.2 239.9,361 243.9,364.5 248,367.9 252.3,371.1 257,374.1 261.6,376.9 266.5,379.5 271.5,381.8 276.7,383.7 282.1,385.5 287.6,387 293.3,388.2 299.1,389.1 305.1,389.5 311.3,389.8 354.5,389.8 441.6,389.8 485,389.8 491.1,389.5 497.1,389.1 502.9,388.2 508.5,387 514,385.5 519.4,383.7 524.7,381.8 529.7,379.5 534.4,376.9 539.2,374.1 543.7,371.1 548,367.9 552.1,364.5 556,361 559.8,357.2 563.4,353.3 566.8,349.3 569.9,345.3 572.9,341.1 575.7,336.8 578.2,332.4 580.6,328 582.8,323.6 584.7,319.1 586.4,314.6 587.9,310.1 589.2,305.6 590.2,301.1 591.1,296.7 591.7,292.4 592,288.1 592.2,283.8 592.2,235.5 592,231.2 591.7,227 591.1,222.6 590.2,218.2 589.2,213.7 587.9,209.2 586.4,204.7 584.7,200.2 582.8,195.7 580.6,191.4 578.2,186.9 575.7,182.5 572.9,178.2 569.9,174 566.8,170 563.4,165.9 559.8,162 556,158.3 552.1,154.8 548,151.3 543.7,148.2 539.2,145.1 534.4,142.3 529.7,139.8 524.7,137.5 519.4,135.5 514,133.7 508.5,132.3 502.9,131 497.1,130.2 491.1,129.7 485,129.5 441.6,129.5 395.9,129.5 395.9,139.1 439.6,139.1 480.8,139.1 486.6,139.2 492.3,139.7 497.8,140.4 503.3,141.5 508.5,143 513.5,144.5 518.6,146.5 523.3,148.5 527.9,151 532.3,153.5 536.6,156.3 540.8,159.3 544.7,162.4 548.5,165.7 552,169.2 555.4,172.7 558.6,176.5 561.6,180.3 564.4,184.2 567.1,188.2 571.9,196.3 575.7,204.6 578.7,213 581.1,221.3 581.8,225.4 582.4,229.4 582.6,233.3 582.8,237.2 582.8,282.1 582.6,286 582.4,289.9 581.8,293.9 581.1,298.1 578.7,306.3 575.7,314.7 571.9,323 567.1,331.1 564.4,335.1 561.6,339 558.6,342.9 555.4,346.5 552,350.1 548.5,353.6 544.7,356.9 540.8,360 536.6,362.9 532.3,365.7 527.9,368.3 523.3,370.7 518.6,372.8 513.5,374.7 508.5,376.3 503.3,377.8 497.8,378.9 492.3,379.6 486.6,380.1 480.8,380.3 439.6,380.3 356.6,380.3 315.4,380.3 309.6,380.1 303.8,379.6 298.3,378.9 292.8,377.8 287.6,376.3 282.5,374.7 277.6,372.8 272.7,370.7 268.1,368.3 263.7,365.7 259.4,362.9 255.2,360 251.2,356.9 247.4,353.6 243.9,350.1 240.5,346.5 237.2,342.9 234.1,339 231.3,335.1 228.6,331.1 223.9,323 220,314.7 216.8,306.3 215.6,302.2 214.6,298.1 213.7,293.9 213.3,289.9 212.9,286 212.8,282.1 212.8,237.2 212.9,233.3 213.3,229.4 213.7,225.4 214.6,221.3 215.6,217.1 216.8,213 220,204.6 223.9,196.3 228.6,188.2 231.3,184.2 234.1,180.3 237.2,176.5 240.5,172.7 243.9,169.2 247.4,165.7 251.2,162.4 255.2,159.3 259.4,156.3 263.7,153.5 268.1,151 272.7,148.5 277.6,146.5 282.5,144.5 287.6,143 292.8,141.5 298.3,140.4 303.8,139.7 309.6,139.2 315.4,139.1 356.6,139.1 395.9,139.1 395.9,129.5 354.5,129.5 311.3,129.5 305.1,129.7 299.1,130.2 293.3,131 287.6,132.3 282.1,133.7 276.7,135.5 271.5,137.5 266.5,139.8 261.6,142.3 257,145.1 252.3,148.2 248,151.3 243.9,154.8 239.9,158.3 236.1,162 232.5,165.9 229.1,170 226,174 222.9,178.2 220.1,182.5 217.5,186.9 215.1,191.4 212.9,195.7 210.9,200.2 209.2,204.7 207.8,209.2 206.4,213.7 205.3,218.2 204.5,222.6 203.9,227 203.5,231.2 203.4,235.5 203.4,235.5 " style="fill:#F4F4F4; stroke:#BEBEBE; stroke-width:1; fill-opacity:1.0;"></polygon><polygon class="is-d epoly_bar_sw" data-role="dynamic" points="171.9,379.3 181.4,393.7 175.5,399.6 162.7,386.5 162.7,386.5 162.7,386.5 " style="fill:#; stroke:#; stroke-width:0; fill-opacity:0.0;"></polygon><polygon class="is-d epoly_bench_visitor" data-role="dynamic" points="366.9,200.4 396.6,200.4 396.6,200.4 396.7,209.1 366.9,209 366.9,209 366.9,209 " style="fill:#DDD; stroke:#DDD; stroke-width:0; fill-opacity:1.0;"></polygon><polygon class="is-d epoly_press_box" data-role="dynamic" points="270.4,471.9 264.9,489.5 531.2,489.5 524.9,471.9 270.4,471.9 " style="fill:#F4F4F4; stroke:#BEBEBE; stroke-width:1; fill-opacity:1.0;"></polygon><polygon class="is-d epoly_theater_boxes" data-role="dynamic" points="553,111.5 557.2,113.8 561.4,116.2 569.3,121.7 576.8,127.8 583.7,134.4 590.2,141.5 596.2,149 601.6,156.9 606.4,165.3 610.8,173.8 614.6,182.7 617.8,191.7 620.5,200.8 622.6,210.1 624.1,219.4 625,228.7 625.2,238 625.2,281.4 625,290.8 624,300 622.6,309.4 620.5,318.6 617.8,327.8 614.5,336.8 610.7,345.7 606.3,354.3 601.4,362.6 595.9,370.5 590.1,378 583.5,385.2 576.5,391.7 569.1,397.8 561,403.3 556.9,405.7 552.6,408.1 557.2,416.3 561.8,413.8 566.2,411.3 570.4,408.5 574.6,405.6 578.6,402.4 582.4,399.1 589.7,392.2 596.6,384.8 602.9,376.8 608.5,368.4 613.8,359.7 618.3,350.5 622.3,341.3 625.7,331.7 628.5,322 630.7,312.2 632.3,302.3 633.3,292.5 633.7,282.6 633.7,236.8 633.3,227 632.3,217.1 630.7,207.3 628.5,197.4 625.7,187.8 622.3,178.2 618.4,168.9 613.8,159.9 608.6,151.1 603,142.7 596.7,134.7 590,127.3 582.6,120.3 578.7,117 574.8,113.9 570.7,111 566.4,108.2 562,105.6 557.5,103.2 553,111.5 553,111.5 " style="fill:#F4F4F4; stroke:#BEBEBE; stroke-width:1; fill-opacity:1.0;"></polygon><polygon class="is-d epoly_bar_se" data-role="dynamic" points="618.2,402.2 630.9,384.8 622.4,380.2 611,394.7 611,402.2 611,394.7 611,394.7 611,394.7 " style="fill:#; stroke:#; stroke-width:0; fill-opacity:0.0;"></polygon><polygon class="is-d epoly_bar_nw" data-role="dynamic" points="162.7,133.5 174.9,118.8 180.4,124.3 170.6,138.1 170.6,138.1 170.6,138.1 " style="fill:#; stroke:#; stroke-width:0; fill-opacity:0.0;"></polygon><polygon class="is-d epoly_bar_ne" data-role="dynamic" points="619.5,117.5 632.3,132.5 626,138.4 612.3,125 612.3,125 612.3,125 " style="fill:#; stroke:#; stroke-width:0; fill-opacity:0.0;"></polygon><polygon class="is-d epoly_penalty_box" data-role="dynamic" points="381.5,309.5 381.5,315.8 412.2,315.8 412.2,309.5 " style="fill:#000; stroke:#000; stroke-width:1; fill-opacity:1.0;"></polygon><polygon class="is-d epoly_bench_home" data-role="dynamic" points="396.7,200.4 426.1,200.4 426.1,209 396.7,209 396.7,209 396.7,209 " style="fill:#000; stroke:#000; stroke-width:0; fill-opacity:1.0;"></polygon></g><circle id="mctrmrk" cx="396.3" cy="258.2" r="1" stroke-width="0" stroke="#FFF" opacity="0"></circle><g id="svgsectionnames" style="opacity:1; font-size:5.766666666666667px;"><text data-sectionid="101" data-role="section" x="417.6" y="177.4">101</text><text data-sectionid="102" data-role="section" x="458.4" y="177.4">102</text><text data-sectionid="103" data-role="section" x="492.9" y="178.7">103</text><text data-sectionid="104" data-role="section" x="514.9" y="200.7">104</text><text data-sectionid="105" data-role="section" x="538.3" y="220.1">105</text><text data-sectionid="106" data-role="section" x="543.4" y="260.4">106</text><text data-sectionid="107" data-role="section" x="538.3" y="299.9">107</text><text data-sectionid="108" data-role="section" x="522.2" y="328.8">108</text><text data-sectionid="109" data-role="section" x="494.2" y="341.8">109</text><text data-sectionid="110" data-role="section" x="458.4" y="345.3">110</text><text data-sectionid="111" data-role="section" x="417.6" y="345.3">111</text><text data-sectionid="112" data-role="section" x="376.1" y="345.3">112</text><text data-sectionid="113" data-role="section" x="335.6" y="345.3">113</text><text data-sectionid="114" data-role="section" x="300.6" y="341.6">114</text><text data-sectionid="115" data-role="section" x="272.5" y="327.7">115</text><text data-sectionid="116" data-role="section" x="254.7" y="299.3">116</text><text data-sectionid="117" data-role="section" x="234.9" y="260.4">117</text><text data-sectionid="118" data-role="section" x="245.1" y="222.7">118</text><text data-sectionid="119" data-role="section" x="277.9" y="199.9">119</text><text data-sectionid="120" data-role="section" x="301.3" y="179.5">120</text><text data-sectionid="121" data-role="section" x="335.6" y="177.4">121</text><text data-sectionid="122" data-role="section" x="376.1" y="177.4">122</text><text data-sectionid="201" data-role="section" x="417.6" y="115.5">201</text><text data-sectionid="202" data-role="section" x="458.7" y="115.5">202</text><text data-sectionid="203" data-role="section" x="496" y="116.4">203</text><text data-sectionid="204" data-role="section" x="528.9" y="119.6">204</text><text data-sectionid="205" data-role="section" x="556.9" y="134.1">205</text><text data-sectionid="206" data-role="section" x="581.9" y="158.6">206</text><text data-sectionid="207" data-role="section" x="598.2" y="188">207</text><text data-sectionid="208" data-role="section" x="606.1" y="220.8">208</text><text data-sectionid="209" data-role="section" x="607.9" y="261.4">209</text><text data-sectionid="210" data-role="section" x="606.1" y="298.6">210</text><text data-sectionid="211" data-role="section" x="598.2" y="335.1">211</text><text data-sectionid="212" data-role="section" x="579.9" y="363.3">212</text><text data-sectionid="213" data-role="section" x="556.2" y="385.3">213</text><text data-sectionid="214" data-role="section" x="526.9" y="403.5">214</text><text data-sectionid="215" data-role="section" x="495.3" y="408.1">215</text><text data-sectionid="216" data-role="section" x="458.7" y="408.5">216</text><text data-sectionid="217" data-role="section" x="417.6" y="408.5">217</text><text data-sectionid="218" data-role="section" x="376.4" y="408.5">218</text><text data-sectionid="219" data-role="section" x="335.3" y="408.5">219</text><text data-sectionid="220" data-role="section" x="298.9" y="408.1">220</text><text data-sectionid="221" data-role="section" x="267.9" y="400.9">221</text><text data-sectionid="222" data-role="section" x="236.1" y="386.8">222</text><text data-sectionid="223" data-role="section" x="212.1" y="364.1">223</text><text data-sectionid="224" data-role="section" x="193.5" y="337.1">224</text><text data-sectionid="225" data-role="section" x="187.2" y="299.9">225</text><text data-sectionid="226" data-role="section" x="186.1" y="261.4">226</text><text data-sectionid="227" data-role="section" x="185.3" y="223.4">227</text><text data-sectionid="228" data-role="section" x="192.9" y="188.7">228</text><text data-sectionid="229" data-role="section" x="212.1" y="158.6">229</text><text data-sectionid="230" data-role="section" x="236.1" y="135.9">230</text><text data-sectionid="231" data-role="section" x="265.3" y="121.6">231</text><text data-sectionid="232" data-role="section" x="298.9" y="115">232</text><text data-sectionid="233" data-role="section" x="335.3" y="115.5">233</text><text data-sectionid="234" data-role="section" x="376.4" y="115.5">234</text><text data-sectionid="301" data-role="section" x="417.6" y="61.1">301</text><text data-sectionid="302" data-role="section" x="458.4" y="61.1">302</text><text data-sectionid="303" data-role="section" x="502.6" y="61.9">303</text><text data-sectionid="304" data-role="section" x="550.5" y="68">304</text><text data-sectionid="305" data-role="section" x="592.6" y="90.6">305</text><text data-sectionid="306" data-role="section" x="640.5" y="118.2">306</text><text data-sectionid="307" data-role="section" x="650.7" y="165.7">307</text><text data-sectionid="308" data-role="section" x="660.8" y="213.1">308</text><text data-sectionid="309" data-role="section" x="663.9" y="261.4">309</text><text data-sectionid="310" data-role="section" x="662.1" y="305.4">310</text><text data-sectionid="311" data-role="section" x="650.7" y="352.8">311</text><text data-sectionid="312" data-role="section" x="641.2" y="406.1">312</text><text data-sectionid="313" data-role="section" x="591.3" y="432">313</text><text data-sectionid="314" data-role="section" x="549.8" y="451.2">314</text><text data-sectionid="315" data-role="section" x="500.3" y="451.1">315</text><text data-sectionid="316" data-role="section" x="458.4" y="453">316</text><text data-sectionid="317" data-role="section" x="417.6" y="453">317</text><text data-sectionid="318" data-role="section" x="376.4" y="453">318</text><text data-sectionid="319" data-role="section" x="335.6" y="453">319</text><text data-sectionid="320" data-role="section" x="293.7" y="451.1">320</text><text data-sectionid="321" data-role="section" x="245" y="455.2">321</text><text data-sectionid="322" data-role="section" x="199.7" y="432.7">322</text><text data-sectionid="323" data-role="section" x="149.1" y="406.1">323</text><text data-sectionid="324" data-role="section" x="141.5" y="358.8">324</text><text data-sectionid="325" data-role="section" x="131.9" y="306.7">325</text><text data-sectionid="326" data-role="section" x="127.5" y="260.4">326</text><text data-sectionid="327" data-role="section" x="129.9" y="214.5">327</text><text data-sectionid="328" data-role="section" x="139.5" y="165.1">328</text><text data-sectionid="329" data-role="section" x="156.3" y="117.1">329</text><text data-sectionid="330" data-role="section" x="199.7" y="86">330</text><text data-sectionid="331" data-role="section" x="245" y="65.4">331</text><text data-sectionid="332" data-role="section" x="290.9" y="61.3">332</text><text data-sectionid="333" data-role="section" x="335.6" y="61.1">333</text><text data-sectionid="334" data-role="section" x="376.4" y="61.1">334</text><text data-sectionid="SRO" data-role="section" x="706.3" y="467.7">SRO</text><text data-sectionid="HC" data-role="section" x="170.1" y="259.8" transform="rotate(270 170.1 259.8)">HC</text><text data-sectionid="banner_seats" data-role="section" x="392.4" y="497.6">BANNER SEATS</text><text data-sectionid="banner_suites_lofts" data-role="section" x="92.5" y="258.5" transform="rotate(271.077 92.5 258.5)">BANER SUITES</text><text class="is-d " text-anchor="middle" x="208.3" y="259.9" style="fill:#999; font-size:5.9px; " dominant-baseline="central" data-offset="0|0.3" transform="rotate(-90 208.3 259.9)">LOWER LEVEL SUITES</text><text class="is-d " text-anchor="middle" x="397.7" y="135.3" style="fill:#999; font-size:5.9px; " dominant-baseline="central" data-offset="0|0.3" null="">LOWER LEVEL SUITES</text><text class="is-d " text-anchor="middle" x="587.7" y="257" style="fill:#999; font-size:5.9px; " dominant-baseline="central" data-offset="0|0.3" transform="rotate(90 587.7 257)">LOWER LEVEL SUITES</text><text class="is-d " text-anchor="middle" x="397.8" y="96.5" style="fill:#999; font-size:5.9px; " dominant-baseline="central" data-offset="0|0.3" null="">CLUB LEVEL SUITES</text><text class="is-d " text-anchor="middle" x="399.7" y="428.1" style="fill:#999; font-size:5.9px; " dominant-baseline="central" data-offset="0|0.3" null="">CLUB LEVEL SUITES</text><text class="is-d " text-anchor="middle" x="401" y="386.3" style="fill:#999; font-size:5.9px; " dominant-baseline="central" data-offset="0|0.3" null="">LOWER LEVEL SUITES</text><text class="is-d " text-anchor="middle" x="172.1" y="391.4" style="fill:#999; font-size:5.9px; " dominant-baseline="central" data-offset="0|0.3" transform="rotate(54 172.1 391.4)">BAR</text><text class="is-d dyn-name-bench bench_visitor" text-anchor="middle" x="381.8" y="206.7" style="fill:#666; font-size:5.9px; " dominant-baseline="central" data-offset="0|0.3" null="">VISITOR</text><text class="is-d " text-anchor="middle" x="398.1" y="482.7" style="fill:#999; font-size:5.9px; " dominant-baseline="central" data-offset="0|0.3" null="">PRESS BOX</text><text class="is-d " text-anchor="middle" x="630.5" y="262.5" style="fill:#999; font-size:5.9px; " dominant-baseline="central" data-offset="0|0.3" transform="rotate(90 630.5 262.5)">THEATER BOXES</text><text class="is-d " text-anchor="middle" x="620.9" y="393.2" style="fill:#999; font-size:5.9px; " dominant-baseline="central" data-offset="0|0.3" transform="rotate(311 620.9 393.2)">BAR</text><text class="is-d " text-anchor="middle" x="171.6" y="130.4" style="fill:#999; font-size:5.9px; " dominant-baseline="central" data-offset="0|0.3" transform="rotate(308 171.6 130.4)">BAR</text><text class="is-d " text-anchor="middle" x="622.3" y="129.9" style="fill:#999; font-size:5.9px; " dominant-baseline="central" data-offset="0|0.3" transform="rotate(53 622.3 129.9)">BAR</text><text class="is-d " text-anchor="middle" x="396.8" y="314.6" style="fill:#FFF; font-size:5.3px; " dominant-baseline="central" data-offset="0|0.3" null="">PENALTY</text><text class="is-d dyn-name-bench bench_home" text-anchor="middle" x="411.4" y="206.7" style="fill:#FFF; font-size:5.9px; " dominant-baseline="central" data-offset="0|0.3" null="">HOME</text></g></g><circle id="svgZoomCenter" r="1" stroke-width="0" fill-opacity="0" cx="362.8" cy="259.5"></circle><circle id="svgNorthWest" r="1" stroke-width="0" fill-opacity="0" cx="0" cy="0"></circle><circle id="svgSouthEast" r="1" stroke-width="0" fill-opacity="0" cx="794" cy="519"></circle><g id="svgmarkers" style="font-size: 10.3px;"><circle id="svg-marker-hover" data-ticket="" style="display: none;"></circle></g>undefined</g><circle id="svgZoomCenterLoad" r="1" stroke-width="0" fill-opacity="0" cx="397" cy="259.5"></circle></g></g></svg>